<?xml version="1.0" encoding="UTF-8" standalone="no"?>
<svg width="68px" height="68px" viewBox="0 0 68 68" version="1.1" xmlns="http://www.w3.org/2000/svg" xmlns:xlink="http://www.w3.org/1999/xlink">
    <defs></defs>
    <g stroke="none" stroke-width="1" fill="none" fill-rule="evenodd">
        <g transform="translate(-372.000000, -895.000000)">
            <g transform="translate(372.000000, 895.000000)">
                <circle fill="#546E7A" cx="34" cy="34" r="34"></circle>
                <path d="M40.5714286,34.5714286 C40.1157143,34.5714286 39.5971429,34.6028571 39.0471429,34.65 C40.87,35.97 42.1428571,37.7457143 42.1428571,40.0714286 L42.1428571,44 L51.5714286,44 L51.5714286,40.0714286 C51.5714286,36.41 44.2328571,34.5714286 40.5714286,34.5714286 M28,34.5714286 C24.3385714,34.5714286 17,36.41 17,40.0714286 L17,44 L39,44 L39,40.0714286 C39,36.41 31.6614286,34.5714286 28,34.5714286 M28,31.4285714 C30.6085714,31.4285714 32.6985714,29.3228571 32.6985714,26.7142857 C32.6985714,24.1057143 30.6085714,22 28,22 C25.3914286,22 23.2857143,24.1057143 23.2857143,26.7142857 C23.2857143,29.3228571 25.3914286,31.4285714 28,31.4285714 M40.5714286,31.4285714 C43.18,31.4285714 45.27,29.3228571 45.27,26.7142857 C45.27,24.1057143 43.18,22 40.5714286,22 C37.9628571,22 35.8571429,24.1057143 35.8571429,26.7142857 C35.8571429,29.3228571 37.9628571,31.4285714 40.5714286,31.4285714" fill="#FFFFFF"></path>
            </g>
        </g>
    </g>
</svg>