<?xml version="1.0" encoding="UTF-8" standalone="no"?>
<svg width="24px" height="34px" viewBox="0 0 24 34" version="1.1" xmlns="http://www.w3.org/2000/svg" xmlns:xlink="http://www.w3.org/1999/xlink">
    <defs></defs>
    <g stroke="none" stroke-width="1" fill="none" fill-rule="evenodd">
        <g transform="translate(1.000000, 1.000000)" stroke-width="1" fill="#18FFFF" stroke="#455A64">
            <g>
                <path d="M11,14.9625 C8.83142855,14.9625 7.07142855,13.1985 7.07142855,11.025 C7.07142855,8.8515 8.83142855,7.0875 11,7.0875 C13.1685715,7.0875 14.9285714,8.8515 14.9285714,11.025 C14.9285714,13.1985 13.1685715,14.9625 11,14.9625 L11,14.9625 Z M0,11.025 C0,19.29375 11,31.5 11,31.5 C11,31.5 22,19.29375 22,11.025 C22,4.92975 17.0814285,0 11,0 C4.91857145,0 0,4.92975 0,11.025 L0,11.025 Z"></path>
            </g>
        </g>
    </g>
</svg>
