<?xml version="1.0" encoding="UTF-8" standalone="no"?>
<svg width="68px" height="68px" viewBox="0 0 68 68" version="1.1" xmlns="http://www.w3.org/2000/svg" xmlns:xlink="http://www.w3.org/1999/xlink" xmlns:sketch="http://www.bohemiancoding.com/sketch/ns">
    <!-- Generator: Sketch 3.5.2 (25235) - http://www.bohemiancoding.com/sketch -->
    <title>Group</title>
    <desc>Created with Sketch.</desc>
    <defs></defs>
    <g id="Page-1" stroke="none" stroke-width="1" fill="none" fill-rule="evenodd" sketch:type="MSPage">
        <g id="io16-desktop-attending-phase2" sketch:type="MSArtboardGroup" transform="translate(-372.000000, -1988.000000)">
            <g id="Group" sketch:type="MSLayerGroup" transform="translate(372.000000, 1988.000000)">
                <circle id="Oval-16-Copy-2" fill="#546E7A" sketch:type="MSShapeGroup" cx="34" cy="34" r="34"></circle>
                <path d="M44.3636364,25.9333333 L33.0909091,25.9333333 L33.0909091,36.2 L21.8181818,36.2 L21.8181818,23 L19,23 L19,45 L21.8181818,45 L21.8181818,40.6 L47.1818182,40.6 L47.1818182,45 L50,45 L50,31.8 C50,28.5586667 47.4777273,25.9333333 44.3636364,25.9333333 M27.4545455,34.7333333 C29.7936364,34.7333333 31.6818182,32.768 31.6818182,30.3333333 C31.6818182,27.8986667 29.7936364,25.9333333 27.4545455,25.9333333 C25.1154545,25.9333333 23.2272727,27.8986667 23.2272727,30.3333333 C23.2272727,32.768 25.1154545,34.7333333 27.4545455,34.7333333" id="Page-1" fill="#FBFCFC" sketch:type="MSShapeGroup"></path>
            </g>
        </g>
    </g>
</svg>