<?xml version="1.0" encoding="UTF-8" standalone="no"?>
<svg width="298px" height="116px" viewBox="0 0 298 116" version="1.1" xmlns="http://www.w3.org/2000/svg" xmlns:xlink="http://www.w3.org/1999/xlink" xmlns:sketch="http://www.bohemiancoding.com/sketch/ns">
    <!-- Generator: Sketch 3.5.2 (25235) - http://www.bohemiancoding.com/sketch -->
    <title>#io2016 v2</title>
    <desc>Created with Sketch.</desc>
    <defs>
        <path id="path-1" d="M0,0.662941176 L296.430609,0.662941176 L296.430609,115 L0,115 L0,0.662941176 Z"></path>
    </defs>
    <g id="Page-1" stroke="none" stroke-width="1" fill="none" fill-rule="evenodd" sketch:type="MSPage">
        <g id="io16-desktop-attending-phase2" sketch:type="MSArtboardGroup" transform="translate(-571.000000, -2783.000000)">
            <g id="hashtag" sketch:type="MSLayerGroup" transform="translate(0.000000, 2655.000000)">
                <g id="#io2016-v2" transform="translate(572.000000, 128.000000)">
                    <g id="Group-5" transform="translate(178.200000, 40.588235)" stroke-width="4.32" sketch:type="MSShapeGroup" stroke-linejoin="round">
                        <path d="M0.0605031429,68.6019816 L0.0605031429,0.784959559" id="Stroke-1" stroke="#89ECEF"></path>
                        <path d="M26.207874,33.5672316 L26.207874,72.7205037 L0.0608425714,72.7205037 L0.0608425714,68.6016434" id="Stroke-3" stroke="#4DD0E1"></path>
                    </g>
                    <path d="M204.407874,8.56301838 L204.407874,74.1552978" id="Stroke-6" stroke="#7986CB" stroke-width="4.32" stroke-linejoin="round" sketch:type="MSShapeGroup"></path>
                    <g id="Group-31">
                        <path d="M178.260588,41.3735331 L178.260588,5.07327574 L204.407619,5.07327574 L204.407619,8.56301838" id="Stroke-7" stroke="#FF5252" stroke-width="4.32" stroke-linejoin="round" sketch:type="MSShapeGroup"></path>
                        <path d="M260.950225,113.174798 C249.402865,111.717849 239.518705,103.293254 235.562665,93.2865625 C230.531485,80.5613051 238.009096,66.9760846 240.996916,61.3081066 C243.985585,55.6392831 268.378619,20.6522243 268.378619,20.6522243 L259.107976,10.9152757" id="Stroke-9" stroke="#FF5252" stroke-width="4.32" stroke-linejoin="round" sketch:type="MSShapeGroup"></path>
                        <path d="M260.286303,55.7413456 C264.046323,55.2052426 270.907871,54.1457206 279.133074,57.868 C291.566343,63.4945441 295.149011,75.7251324 294.696723,84.7534779 C294.265648,93.3429632 286.19234,109.257779 270.036388,112.643515 C266.885643,113.303919 263.843514,113.455279 260.949885,113.174544" id="Stroke-11" stroke="#7986CB" stroke-width="4.32" stroke-linejoin="round" sketch:type="MSShapeGroup"></path>
                        <path d="M251.996863,97.5682831 C253.051637,97.4583566 254.120837,97.2917757 255.203614,97.0651581 C271.358717,93.6785772 279.432874,77.7646066 279.8631,69.1742757 C280.315389,60.1467757 276.73272,47.9153419 264.3003,42.2896434 C253.710977,37.4976949 242.00748,40.8589081 242.00748,40.8589081 L256.840509,56.4380257 C256.840509,56.4380257 260.300134,55.7750846 260.666717,55.6871434" id="Stroke-13" stroke="#4DD0E1" stroke-width="4.32" stroke-linejoin="round" sketch:type="MSShapeGroup"></path>
                        <path d="M259.107976,10.9155294 L253.545591,5.07336029 C253.545591,5.07336029 229.152556,40.0604191 226.163888,45.7292426 C223.176068,51.3972206 215.698456,64.9824412 220.729636,77.7076985 C225.299193,89.2677353 237.838533,98.4964853 251.996948,97.5680294" id="Stroke-15" stroke="#89ECEF" stroke-width="4.32" stroke-linejoin="round" sketch:type="MSShapeGroup"></path>
                        <path d="M128.334549,38.8385441 C107.685411,38.8385441 90.9464914,55.5093162 90.9464914,76.0731765 C90.9464914,96.6378824 107.685411,113.308654 128.334549,113.308654 C148.984534,113.308654 165.722606,96.6378824 165.722606,76.0731765 C165.722606,55.5093162 148.984534,38.8385441 128.334549,38.8385441 L128.334549,38.8385441 Z" id="Stroke-17" stroke="#7986CB" stroke-width="4.32" stroke-linecap="round" stroke-linejoin="round" sketch:type="MSShapeGroup"></path>
                        <path d="M28.4137354,37.8417647 L28.4137354,2.35411765" id="Stroke-19" stroke="#7986CB" stroke-width="4.32" stroke-linecap="round" stroke-linejoin="round" sketch:type="MSShapeGroup"></path>
                        <path d="M10.5937354,37.8417647 L10.5937354,2.35411765" id="Stroke-21" stroke="#7986CB" stroke-width="4.32" stroke-linecap="round" stroke-linejoin="round" sketch:type="MSShapeGroup"></path>
                        <path d="M37.3102431,11.2190956 L1.69739743,11.2190956" id="Stroke-23" stroke="#7986CB" stroke-width="4.32" stroke-linecap="round" stroke-linejoin="round" sketch:type="MSShapeGroup"></path>
                        <path d="M37.3102431,28.9764485 L1.69739743,28.9764485" id="Stroke-25" stroke="#7986CB" stroke-width="4.32" stroke-linecap="round" stroke-linejoin="round" sketch:type="MSShapeGroup"></path>
                        <path d="M66.5941886,2.53701838 C58.0287086,2.53701838 51.084,9.45223897 51.084,17.9833787 C51.084,26.5136728 58.0287086,33.429739 66.5941886,33.429739 C75.1605171,33.429739 82.1043771,26.5136728 82.1043771,17.9833787 C82.1043771,9.45223897 75.1605171,2.53701838 66.5941886,2.53701838 L66.5941886,2.53701838 Z" id="Stroke-27" stroke="#7986CB" stroke-width="4.32" stroke-linecap="round" stroke-linejoin="round" sketch:type="MSShapeGroup"></path>
                        <mask id="mask-2" sketch:name="Clip 30" fill="white">
                            <use xlink:href="#path-1"></use>
                        </mask>
                        <g id="Clip-30"></g>
                        <path d="M53.5202486,41.3737868 L79.66728,41.3737868 L79.66728,113.308824 L53.5202486,113.308824 L53.5202486,41.3737868 Z" id="Stroke-29" stroke="#7986CB" stroke-width="4.32" stroke-linecap="round" stroke-linejoin="round" sketch:type="MSShapeGroup" mask="url(#mask-2)"></path>
                    </g>
                </g>
            </g>
        </g>
    </g>
</svg>