<?xml version="1.0" encoding="UTF-8" standalone="no"?>
<svg width="480px" height="480px" viewBox="0 0 480 480" version="1.1" xmlns="http://www.w3.org/2000/svg" xmlns:xlink="http://www.w3.org/1999/xlink">
    <defs>
        <rect id="path-1" x="0" y="0" width="480" height="480"></rect>
    </defs>
    <g stroke="none" stroke-width="1" fill="none" fill-rule="evenodd">
        <g transform="translate(-720.000000, -391.000000)">
            <g transform="translate(720.000000, 391.000000)">
                <mask id="mask-2" fill="white">
                    <use xlink:href="#path-1"></use>
                </mask>
                <use fill="#ECEFF1" xlink:href="#path-1"></use>
                <g mask="url(#mask-2)">
                    <g transform="translate(190.158614, 235.652376) rotate(-5.000000) translate(-190.158614, -235.652376) translate(-353.341386, 41.652376)">
                        <path d="M40.8684507,387.192722 L55.888141,13.5383178 L410.480918,54.1798894 L690.283152,0.10641583 L1065.83557,63.0969604 L1086.25791,377.441014 L490.463225,325.601064 L40.8684507,387.192722 Z" fill="#EEEEEE"></path>
                        <path d="M666.344258,211.445917 C666.344257,211.445909 921.425724,93.0148458 921.425724,93.0148458 L921.425724,336.427092 C921.425724,336.427092 645.459884,311.068194 645.459884,311.068192 C645.459884,311.06819 666.344258,211.445924 666.344258,211.445917 Z" fill="#26C6DA"></path>
                        <path d="M437.990797,76.5565669 L663.333108,33.0078028 C663.333108,33.0078028 612.699493,305.284134 612.699494,305.284153 C612.699496,305.284171 502.405572,295.149085 502.405572,295.149085 L437.990797,76.5565669 Z" fill="#455A64"></path>
                        <path d="M670.624041,183.634203 C670.624041,183.634198 699.097654,31.5032386 699.097654,31.5032386 L917.375197,69.045791 C917.375197,69.045791 670.624041,183.634207 670.624041,183.634203 Z" fill="#B0BEC5"></path>
                        <path d="M244.399025,329.021874 L154.05679,50.0263545 L398.973914,78.9819417 L464.030234,299.751552 L244.399025,329.021874 Z" fill="#FF5252"></path>
                        <path d="M506.993767,142.972242 C514.273895,142.972242 520.175605,137.070532 520.175605,129.790404 C520.175605,122.510276 514.273895,116.608566 506.993767,116.608566 C499.713639,116.608566 493.811929,122.510276 493.811929,129.790404 C493.811929,137.070532 499.713639,142.972242 506.993767,142.972242 Z" fill="#F5F5F5"></path>
                        <ellipse fill="#F5F5F5" cx="731.085012" cy="276.818597" rx="13.1818379" ry="13.1818379"></ellipse>
                        <ellipse fill="#F5F5F5" cx="399.511088" cy="242.343021" rx="13.1818379" ry="13.1818379"></ellipse>
                        <ellipse fill="#F5F5F5" cx="804.092114" cy="83.1469778" rx="13.1818379" ry="13.1818379"></ellipse>
                    </g>
                </g>
            </g>
        </g>
    </g>
</svg>
