<?xml version="1.0" encoding="UTF-8" standalone="no"?>
<svg width="480px" height="480px" viewBox="0 0 480 480" version="1.1" xmlns="http://www.w3.org/2000/svg" xmlns:xlink="http://www.w3.org/1999/xlink">
    <defs>
        <rect id="path-1" x="0" y="0" width="480" height="480"></rect>
        <path id="path-3" d="M0,1523.36315 L1952.36635,1523.36315 L1952.36635,0.288465058 L0,0.288465058 L0,1523.36315 Z"></path>
    </defs>
    <g stroke="none" stroke-width="1" fill="none" fill-rule="evenodd">
        <g transform="translate(-720.000000, -391.000000)">
            <g id="photo" transform="translate(720.000000, 391.000000)">
                <mask id="mask-2" fill="white">
                    <use xlink:href="#path-1"></use>
                </mask>
                <use id="Mask" fill="#37474F" xlink:href="#path-1"></use>
                <g mask="url(#mask-2)">
                    <g transform="translate(-519.000000, -627.000000)">
                        <path d="M0,1524.81667 L1952.3671,1524.81667 L1952.3671,1.74272318 L0,1.74272318 L0,1524.81667 Z" id="Fill-1" fill="#455A64"></path>
                        <g id="Group-109" stroke-width="1" fill="none" transform="translate(0.000000, 0.453515)">
                            <path d="M578.629723,1218.46324 L562.565443,1211.40031 L554.979533,1208.42645 L582.49705,1208.42645 L578.629723,1218.46324 L578.629723,1218.46324 Z M1676.87614,839.592643 L1674.71937,835.20619 L1666.83597,839.66699 L1666.83597,772.457605 L1659.17569,797.066351 C1665.57165,797.066351 1671.2239,792.754245 1672.86007,786.509125 C1673.60379,783.460911 1674.05002,780.412698 1674.12439,777.290138 L1670.10832,742.495899 L1660.36563,644.060916 L1655.60585,578.784544 L1652.18475,530.310519 L1649.20988,446.819215 L1645.78879,393.21527 L1644.89633,387.044497 C1643.63201,378.643324 1642.96266,370.242151 1642.73955,361.766631 C1642.51643,352.547645 1642.0702,343.254312 1641.47523,334.035325 C1640.43403,317.381672 1627.79084,303.85058 1611.28033,301.545833 L1296.76255,318.199486 L1240.4632,320.504232 L1095.51282,317.604712 L1043.75013,315.820393 C1029.61952,319.612072 1018.01754,328.682365 1010.72911,340.429138 L985.814605,340.429138 L988.491985,335.596605 C988.491985,331.358845 988.343242,327.195432 988.120127,322.957672 C987.748269,316.935592 983.285968,311.954366 977.336235,310.764819 C967.667918,308.906153 957.776486,307.790953 947.959426,307.419219 L900.510302,305.783593 L793.563844,306.973139 L626.227591,319.537726 L534.452952,327.790205 L402.443242,331.730579 C397.683455,332.102312 393.518642,335.150525 391.808093,339.611325 L392.254323,357.603218 L359.828276,357.603218 L360.051391,357.082791 L360.943851,354.331965 L361.538825,352.175911 L361.910683,350.540285 L362.133798,349.276391 L362.282541,348.309885 L362.356913,347.492072 L362.431285,346.674258 L362.505656,345.930792 L362.505656,345.187325 L362.505656,344.443858 L362.505656,343.700392 L362.431285,342.956925 L362.356913,342.213458 L362.20817,341.469992 L362.059426,340.726525 L361.836311,339.983058 L361.538825,339.239592 L361.241338,338.496125 L360.86948,337.827005 L360.42325,337.157885 L359.977019,336.563112 L359.456418,336.042685 L358.861444,335.522259 L358.192099,335.076179 L357.522754,334.704445 L356.704666,334.407059 L355.812206,334.184019 L354.845374,333.960979 L353.804171,333.812285 L352.614224,333.663592 L351.349906,333.589245 L349.936844,333.514899 L348.375039,333.514899 L346.590119,333.514899 L344.656456,333.514899 L342.499678,333.514899 L340.119784,333.514899 L337.516776,333.514899 L334.616281,333.514899 L331.492671,333.514899 L328.220317,333.514899 L324.799221,333.514899 L321.303752,333.514899 L317.808284,333.514899 L314.312815,333.514899 L310.817347,333.514899 L307.39625,333.514899 L304.123897,333.514899 L301.000287,333.589245 L298.02542,333.663592 L295.273668,333.737939 L292.745032,333.812285 L290.513882,333.960979 L288.505847,334.109672 L286.795298,334.258365 L285.382237,334.481405 L284.19229,334.704445 L283.225458,335.001832 L282.40737,335.373565 L281.738025,335.745299 L281.143051,336.191379 L280.62245,336.711805 L280.101848,337.232232 L279.581246,337.827005 L279.060645,338.496125 L278.763158,339.611325 L278.242556,340.354792 L277.721955,341.098258 L277.275725,341.916072 L276.829495,342.733885 L276.383265,343.626045 L275.937035,344.741245 L275.565176,346.376872 L275.193318,348.755965 L274.895831,352.175911 L274.598345,356.859751 L274.37523,363.030524 L274.152115,370.911271 L274.003371,380.650684 L273.854628,391.802684 L273.854628,403.995536 L273.929,416.634469 L274.152115,429.199056 L274.523973,441.168869 L275.044575,452.097828 L275.788291,461.465508 L276.680751,468.900174 L277.721955,474.699214 L278.911901,479.308708 L280.101848,483.174734 L281.217423,486.817721 L282.258627,490.6094 L283.151087,495.0702 L283.820432,500.6462 L284.266662,507.709133 L284.489777,515.887266 L284.63852,524.883213 L284.787263,534.250892 L285.010378,543.544226 L285.456608,552.391479 L286.125953,560.420918 L287.167157,567.186465 L288.65459,572.390731 L290.513882,576.182411 L292.596288,578.784544 L294.827438,580.420171 L297.13296,581.312331 L299.438482,581.758411 L301.669632,581.907104 L303.677667,582.055798 L305.462587,582.353184 L306.95002,582.799264 L308.214339,583.394038 L309.329914,584.137504 L310.371117,585.029664 L311.337949,585.996171 L312.230409,587.111371 L313.122869,588.300917 L314.0897,589.564811 L315.130904,590.828704 L316.172107,592.166944 L317.287682,593.505184 L318.403257,594.843424 L319.518832,596.181664 L320.708779,597.519904 L321.898726,598.858144 L323.088672,600.196384 L324.278619,601.460277 L325.468566,602.72417 L326.658512,603.988064 L327.848459,605.17761 L329.038406,606.367157 L330.228352,607.556704 L331.418299,608.74625 L332.682617,609.935797 L333.946936,611.125343 L335.211254,612.31489 L336.475572,613.504437 L337.739891,614.619637 L339.004209,615.734837 L340.268527,616.77569 L341.532846,617.816543 L342.722793,618.78305 L343.912739,619.67521 L345.102686,620.56737 L346.292633,621.385183 L347.556951,622.202996 L348.821269,623.02081 L350.159959,623.838623 L351.573021,624.656436 L353.060454,625.548596 L354.622259,626.440756 L356.258436,627.332916 L357.894613,628.225076 L359.605161,629.117236 L361.31571,630.009396 L363.10063,630.901556 L364.88555,631.793716 L366.67047,632.685876 L368.529761,633.503689 L370.389053,634.321503 L371.207141,634.693236 L373.36392,637.146676 L375.14884,639.674463 L376.636273,644.135262 L377.677476,650.603422 L378.421193,661.086302 L379.16491,673.204808 L379.908627,687.405021 L380.652343,755.580912 L373.81015,755.580912 L373.81015,770.004165 L306.578162,815.281284 L300.7028,818.998617 L296.984217,823.83115 L296.166128,832.678403 L296.68673,845.46603 L295.645527,875.873815 L292.447545,907.322454 L291.852572,966.502399 L291.33197,1073.63594 L291.852572,1167.46143 L292.22443,1193.03669 C292.447545,1209.31861 305.685702,1222.32927 321.973097,1222.32927 L926.763501,1222.32927 L927.135359,1221.88319 L933.531323,1216.53023 L952.198611,1212.29247 L980.459845,1200.5457 L1038.09789,1178.16735 L1098.93391,1152.5921 L1150.69659,1132.36981 L1200.8231,1116.9057 L1265.89831,1101.96202 L1351.42572,1076.83285 L1397.83365,1062.4096 L1428.77226,1057.05664 L1463.42946,1057.05664 L1493.84747,1060.25354 L1522.1087,1059.21269 L1558.92268,1042.1873 L1605.3306,1008.06218 L1648.01994,975.572692 L1658.65508,961.149439 L1668.24903,931.856854 L1671.44701,913.195841 L1673.60379,892.973548 L1675.76057,867.918722 L1678.43795,847.69643 L1676.87614,839.592643 L1676.87614,839.592643 Z" id="Fill-2" fill="#455A64"></path>
                            <path d="M822.643166,1072.07466 L811.933646,1074.75114 C809.03315,1074.97418 806.35577,1073.18986 805.388939,1070.43904 L797.133684,1030.21749 C709.003257,1050.29109 587.331208,1016.5377 566.284026,862.342722 C561.07801,862.045336 542.113234,865.167896 542.113234,865.167896 L542.410721,867.026562 L534.899182,868.216109 L535.717271,872.899949 L527.536387,874.386882 L525.156494,863.160536 L441.711483,880.929388 C436.133607,917.805334 437.621041,955.424746 446.173783,991.780265 C450.338596,1009.54912 455.916471,1026.94624 462.907408,1043.74858 C469.154628,1058.84096 476.443051,1073.4129 484.84705,1087.46442 C505.001772,1122.03562 534.452952,1150.28735 569.928238,1168.87402 C610.312054,1186.0481 654.340081,1192.88799 697.99625,1188.72458 C741.354933,1187.83242 783.969898,1177.57258 823.015024,1158.61418 L819.296441,1150.95647 L834.617004,1142.77834 L822.643166,1072.07466 Z" id="Fill-4" fill="#37474F"></path>
                            <path d="M821.006915,962.636373 C817.883305,975.870079 815.949641,989.326825 815.131553,1002.85792 L839.004858,994.308052 L844.210875,989.252478 L821.006915,962.636373 Z" id="Fill-6" fill="#37474F"></path>
                            <path d="M1676.87614,839.592643 L1674.71937,835.20619 L1631.65817,843.384323 C1626.67527,844.35083 1621.69237,845.24299 1616.70946,846.060803 C1602.87633,848.365549 1588.74572,849.109016 1574.76384,848.142509 C1561.82317,847.25035 1548.80813,846.729923 1535.86746,846.729923 C1519.80318,846.655576 1503.7389,848.216856 1487.97211,851.339416 C1486.9309,851.562456 1485.96407,852.008536 1485.22036,852.677656 L1470.56914,859.220162 L1441.86167,869.108269 L1403.26278,879.368109 L1320.93334,902.564268 L1204.16982,935.425493 L1083.61335,969.178879 C1080.04351,970.145386 1076.3993,970.888852 1072.75508,971.186239 L1070.52393,972.673172 L1067.4747,974.829226 L1063.23551,977.728746 L1060.70687,981.594772 L1055.129,990.293332 L1047.31997,988.285972 L1035.04865,992.077652 L1031.85067,999.586665 L1026.42154,997.504958 L1015.63764,1019.06549 L1014.59644,1021.44458 L1024.26476,1028.73056 L983.137225,1081.368 L976.22066,1076.83285 L950.413691,1109.17365 L925.052952,1129.09855 L876.33951,1150.28735 L838.038101,1158.1681 C794.233189,1182.55381 745.073516,1195.78751 694.947012,1196.82837 C661.628505,1199.95093 628.086882,1196.90271 595.88395,1187.75807 L595.586464,1187.46069 C584.653828,1184.33813 573.944308,1180.62079 563.457903,1176.15999 C527.164529,1157.0529 496.969632,1128.20639 476.294308,1092.74304 C467.741566,1078.39413 460.230028,1063.45045 453.834064,1047.98634 C446.694384,1030.73792 440.967766,1012.89472 436.654209,994.754132 C429.068299,962.487679 426.911521,929.180374 430.258246,896.244801 C410.475382,882.416322 397.757827,860.632749 395.452305,836.618777 C393.072412,812.456111 398.79903,788.144751 411.7397,767.550725 L429.068299,739.968113 L442.157713,721.901873 L441.934598,704.504754 L403.633189,704.504754 L403.633189,640.120543 L407.128657,640.194889 L414.788939,640.343583 L423.862282,640.417929 L433.976829,640.492276 L444.760721,640.492276 L455.842099,640.492276 L466.774735,640.417929 L477.112396,640.269236 L486.483227,640.046196 L494.515367,639.748809 L500.836959,639.377076 L505.596745,638.856649 L508.94347,638.261876 L511.17462,637.592756 L512.438939,636.849289 L512.95954,636.031476 L512.95954,635.139316 L512.662054,634.172809 L512.290195,633.206303 L511.843965,632.165449 L511.323364,631.124596 L510.802762,630.083743 L510.28216,629.117236 L509.761559,628.225076 L509.240957,627.407263 L508.794727,626.738143 L508.422869,626.217716 L508.05101,625.771636 L507.60478,625.47425 L506.935435,625.25121 L505.968604,625.102516 L504.629914,625.02817 L502.844994,625.02817 L500.4651,625.02817 L497.490234,625.02817 L493.846022,625.02817 L489.532465,625.02817 L484.623935,625.02817 L479.120432,625.02817 L472.947583,625.02817 L466.179761,625.02817 L458.816966,625.02817 L450.933569,624.953823 L442.529571,624.730783 L433.679342,624.284703 L424.457256,623.46689 L414.937682,622.12865 L405.194994,620.195637 L395.303562,617.519157 L385.263387,614.024863 L375.223211,609.564063 L365.406151,604.136757 L355.886578,597.891637 L346.887606,590.828704 L338.557979,582.947958 L330.823326,574.398091 L324.352991,565.104758 L319.072602,555.142305 L315.130904,544.659425 L312.379152,533.730466 L310.668604,522.652813 L309.924887,511.57516 L309.999259,500.6462 L310.742975,490.163321 L312.007294,480.275214 L313.64347,471.130574 L315.502762,462.952441 L317.585169,455.592122 L319.89069,448.826575 L322.419327,442.507109 L325.096707,436.410682 L327.922831,430.388602 L330.897697,424.292176 L334.021307,417.898363 L337.219289,411.05847 L340.491642,403.92119 L343.763996,396.635217 L346.887606,389.42359 L349.862473,382.435004 L352.614224,375.892497 L355.068489,369.944764 L357.150896,364.740498 L358.787073,360.428391 L360.051391,356.934098 L360.943851,354.183271 L361.538825,352.027218 L361.910683,350.391591 L362.133798,349.127698 L362.282541,348.161192 L362.356913,347.343378 L362.431285,346.525565 L362.505656,345.782098 L362.505656,345.038632 L362.505656,344.295165 L362.505656,343.551698 L362.431285,342.808232 L362.356913,342.064765 L362.20817,341.321298 L362.059426,340.577832 L361.836311,339.834365 L361.538825,339.090898 L361.241338,338.347432 L360.86948,337.678312 L360.42325,337.009192 L359.977019,336.414419 L359.456418,335.893992 L358.861444,335.373565 L358.192099,334.927485 L357.522754,334.555752 L356.704666,334.258365 L355.812206,334.035325 L354.845374,333.812285 L353.804171,333.663592 L352.614224,333.514899 L351.349906,333.440552 L349.936844,333.366205 L348.375039,333.366205 L346.590119,333.366205 L344.656456,333.366205 L342.499678,333.366205 L340.119784,333.366205 L337.516776,333.366205 L334.616281,333.366205 L331.492671,333.366205 L328.220317,333.366205 L324.799221,333.366205 L321.303752,333.366205 L317.808284,333.366205 L314.312815,333.366205 L310.817347,333.366205 L307.39625,333.366205 L304.123897,333.366205 L301.000287,333.440552 L298.02542,333.514899 L295.273668,333.589245 L292.745032,333.663592 L290.513882,333.812285 L288.505847,333.960979 L286.795298,334.109672 L285.382237,334.332712 L284.19229,334.555752 L283.225458,334.853139 L282.40737,335.224872 L281.738025,335.596605 L281.143051,336.042685 L280.62245,336.563112 L280.101848,337.083539 L279.581246,337.678312 L279.060645,338.347432 L278.763158,339.611325 L278.242556,340.354792 L277.721955,341.098258 L277.275725,341.916072 L276.829495,342.733885 L276.383265,343.626045 L275.937035,344.741245 L275.565176,346.376872 L275.193318,348.755965 L274.895831,352.175911 L274.598345,356.859751 L274.37523,363.030524 L274.152115,370.911271 L274.003371,380.650684 L273.854628,391.802684 L273.854628,403.995536 L273.929,416.634469 L274.152115,429.199056 L274.523973,441.168869 L275.044575,452.097828 L275.788291,461.465508 L276.680751,468.900174 L277.721955,474.699214 L278.911901,479.308708 L280.101848,483.174734 L281.217423,486.817721 L282.258627,490.6094 L283.151087,495.0702 L283.820432,500.6462 L284.266662,507.709133 L284.489777,515.887266 L284.63852,524.883213 L284.787263,534.250892 L285.010378,543.544226 L285.456608,552.391479 L286.125953,560.420918 L287.167157,567.186465 L288.65459,572.390731 L290.513882,576.182411 L292.596288,578.784544 L294.827438,580.420171 L297.13296,581.312331 L299.438482,581.758411 L301.669632,581.907104 L303.677667,582.055798 L305.462587,582.353184 L306.95002,582.799264 L308.214339,583.394038 L309.329914,584.137504 L310.371117,585.029664 L311.337949,585.996171 L312.230409,587.111371 L313.122869,588.300917 L314.0897,589.564811 L315.130904,590.828704 L316.172107,592.166944 L317.287682,593.505184 L318.403257,594.843424 L319.518832,596.181664 L320.708779,597.519904 L321.898726,598.858144 L323.088672,600.196384 L324.278619,601.460277 L325.468566,602.72417 L326.658512,603.988064 L327.848459,605.17761 L329.038406,606.367157 L330.228352,607.556704 L331.418299,608.74625 L332.682617,609.935797 L333.946936,611.125343 L335.211254,612.31489 L336.475572,613.504437 L337.739891,614.619637 L339.004209,615.734837 L340.268527,616.77569 L341.532846,617.816543 L342.722793,618.78305 L343.912739,619.67521 L345.102686,620.56737 L346.292633,621.385183 L347.556951,622.202996 L348.821269,623.02081 L350.159959,623.838623 L351.573021,624.656436 L353.060454,625.548596 L354.622259,626.440756 L356.258436,627.332916 L357.894613,628.225076 L359.605161,629.117236 L361.31571,630.009396 L363.10063,630.901556 L364.88555,631.793716 L366.67047,632.685876 L368.529761,633.503689 L370.389053,634.321503 L371.207141,634.693236 L373.36392,637.146676 L375.14884,639.674463 L376.636273,644.135262 L377.677476,650.603422 L378.421193,661.086302 L379.16491,673.204808 L379.908627,687.405021 L380.652343,755.580912 L373.81015,755.580912 L373.81015,770.004165 L306.578162,815.281284 L300.7028,818.998617 L296.984217,823.83115 L296.166128,832.678403 L296.68673,845.46603 L295.645527,875.873815 L292.447545,907.322454 L291.852572,966.502399 L291.33197,1073.63594 L291.852572,1167.46143 L292.373173,1200.32266 C292.521917,1212.51551 302.48772,1222.25492 314.684674,1222.25492 L926.837873,1222.25492 L927.209731,1221.80884 L933.605694,1216.45588 L952.272983,1212.21812 L980.534217,1200.47135 L1038.17226,1178.09301 L1099.00828,1152.51775 L1150.77096,1132.29546 L1200.89747,1116.83135 L1265.97268,1101.88768 L1351.5001,1076.7585 L1397.90802,1062.33525 L1428.84663,1056.98229 L1463.50383,1056.98229 L1493.92184,1060.1792 L1522.18307,1059.13834 L1558.99705,1042.11296 L1605.40497,1007.98784 L1648.09431,975.498346 L1658.72946,961.075093 L1668.3234,931.782507 L1671.52138,913.121494 L1673.67816,892.899201 L1675.83494,867.844376 L1678.51232,847.622083 L1676.87614,839.592643 Z" id="Fill-8" fill="#37474F"></path>
                            <path d="M645.712968,622.797695 L596.925154,622.797695 L560.259921,623.615509 C559.888063,623.615509 559.664948,623.912895 559.664948,624.284629 C559.664948,624.433322 559.73932,624.582015 559.813691,624.656362 L586.95935,659.004521 L629.723059,707.478546 C630.466776,706.809426 631.284864,706.214653 632.028581,705.545533 L648.910949,694.46788 L656.422488,690.00708 L665.198345,681.97764 L671.073706,673.502121 L677.990272,661.829694 L683.865633,649.339455 L686.766128,638.410495 L687.28673,628.299349 L686.989243,621.682495 L686.39427,618.485589 C673.00737,621.310762 659.322983,622.797695 645.712968,622.797695" id="Fill-10" fill="#37474F"></path>
                            <path d="M984.252726,563.766444 L988.268796,558.264791 L993.772299,549.194498 L999.052688,537.670765 L1007.1592,520.050605 L1015.93506,499.530926 L1042.41137,442.507034 L1046.50181,432.618928 L1047.17116,431.355035 L1055.12893,415.593542 C1056.7651,412.396635 1059.73997,410.091889 1063.30981,409.348422 L1109.49461,408.753649 L1163.56282,407.861489 L1217.33353,407.192369 L1253.40379,406.448902 L1270.50928,405.928475 C1271.99671,405.854129 1273.48414,406.225862 1274.74846,406.969329 L1275.49218,416.560048 C1275.56655,417.377862 1276.23589,417.972635 1277.05398,417.972635 L1323.75939,412.842715 L1363.6226,408.084529 L1398.65166,404.292849 L1427.13601,401.244636 L1453.01735,398.345116 L1489.45947,393.809969 L1552.22915,386.226609 L1577.14366,383.550129 L1577.81301,383.550129 C1580.49039,383.624476 1582.64717,385.854876 1582.57279,388.531356 L1584.95269,447.785647 L1587.77881,522.578392 L1589.04313,556.777857 C1589.48936,568.30159 1590.30745,579.89967 1591.42302,591.423403 L1597.96773,636.997908 L1602.72752,681.53156 L1610.98277,743.759718 C1611.20589,745.395345 1610.16468,746.956625 1608.60288,747.402705 L1576.39995,749.112678 L1455.91784,764.948518 L1399.76723,771.193638 L1320.18955,780.486971 C1318.62774,780.635664 1317.14031,781.230437 1315.87599,782.122597 C1314.16544,783.312144 1313.04987,785.096464 1312.75238,787.103824 C1312.30615,790.449424 1312.00867,793.795023 1311.78555,797.140623 L1314.76042,804.054863 L1322.71819,813.571236 L1326.21365,816.768143 C1332.75836,822.641529 1341.60859,825.020623 1350.2357,823.384996 L1401.47778,814.240356 L1437.69679,809.110436 L1490.35193,804.054863 L1535.0493,800.11449 L1566.95474,798.33017 C1591.19991,796.99193 1615.51944,796.54585 1639.83898,796.99193 L1659.17561,796.917583 C1665.64595,796.917583 1671.29819,792.53113 1672.86,786.211664 C1673.60372,783.237797 1674.04995,780.189584 1674.12432,777.067024 L1670.10825,742.272785 L1660.36556,643.837801 L1655.60577,578.56143 L1652.18468,530.087405 L1649.20981,446.596101 L1645.78871,392.992156 L1644.82188,386.821383 C1643.55756,378.64325 1642.88822,370.39077 1642.6651,362.063943 C1642.44199,352.621917 1641.99576,343.179891 1641.40078,333.812211 C1640.35958,317.158558 1627.7164,303.627465 1611.20589,301.322719 L1296.76247,318.199411 L1240.46312,320.504158 L1095.51274,317.604638 L1043.75006,315.820318 C1017.49686,322.883251 1000.16826,347.789384 1002.62253,374.85157 L996.895909,468.67706 C995.482848,492.393646 988.194424,515.292419 975.774356,535.514711 L964.84172,553.952684 C961.792482,559.082604 963.50303,565.773804 968.634676,568.822017 C973.766321,571.87023 980.459771,570.160257 983.509009,565.030337 C983.880867,564.658604 984.103982,564.212524 984.252726,563.766444" id="Fill-12" fill="#37474F"></path>
                            <path d="M1003.58936,580.34575 L1024.19031,580.12271 L1087.92683,579.23055 L1131.0624,579.23055 L1225.96065,577.148843 L1272.66605,576.925803 C1274.45097,576.925803 1276.23589,577.594923 1277.57458,578.78447 L1277.64896,589.416043 L1279.28513,628.225002 L1279.28513,628.745429 C1279.06202,630.306709 1277.64896,631.496255 1276.01278,631.273215 C1274.45097,631.050175 1273.26103,629.637589 1273.48414,628.001962 L1273.48414,617.444736 L1248.1234,617.444736 L1141.32569,619.600789 L1015.0426,621.533802 L1014.59637,632.016682 C1014.52199,633.131882 1013.70391,634.024042 1012.58833,634.172735 C1011.47276,634.321428 1010.28281,633.949695 1009.46472,633.206228 L994.292901,605.697963 C993.846671,604.805803 993.623556,603.839296 993.697928,602.872789 L996.970281,597.445483 C999.052688,593.95119 1000.54012,590.15951 1001.43258,586.219137 L1002.02755,582.57615 C1002.10193,581.46095 1002.6969,580.717483 1003.58936,580.34575" id="Fill-14" fill="#37474F"></path>
                            <path d="M564.722147,662.052809 L533.039816,624.507743 C532.891073,624.35905 532.74233,624.284703 532.519215,624.284703 L521.512208,624.507743 C521.14035,624.507743 520.917235,624.80513 520.917235,625.176863 C520.917235,625.25121 520.917235,625.399903 520.991606,625.47425 L577.067844,720.340593 L583.538179,734.392113 L588.297966,737.36598 L601.387379,734.540806 C605.700936,730.2287 609.940121,725.693553 614.030563,721.08406 L564.722147,662.052809 Z" id="Fill-24" fill="#37474F"></path>
                            <path d="M837.889358,954.01216 L873.587758,927.098667 L911.963539,949.179626 L945.728276,971.037546 C949.298116,973.342292 951.454895,977.282666 951.529266,981.520425 C951.603638,984.271252 951.008665,987.022079 949.89309,989.549865 L942.307179,998.768852 L936.878048,995.497598 L935.390614,997.504958 C929.366509,1005.3857 920.888139,1011.03605 911.294194,1013.56384 C908.319327,1014.38165 905.121345,1014.38165 902.146479,1013.56384 L857.300363,978.918292 L837.889358,954.01216 Z" id="Fill-30" fill="#37474F"></path>
                            <path d="M565.019708,787.921711 L529.395679,765.617712 L536.089129,755.729606 L527.462016,749.856219 L552.153409,712.757234 L557.656913,718.481927 L569.853866,740.414193 L584.876943,764.205125 L569.779495,787.624325 C569.630751,787.847365 569.407636,788.070405 569.184521,788.293445 C567.994575,789.334298 566.135283,789.185605 565.019708,787.921711" id="Fill-32" fill="#37474F"></path>
                            <path d="M944.687073,855.205443 L976.592518,854.610669 L984.847773,854.610669 C985.219632,856.469336 985.59149,858.328003 985.963349,860.112322 C987.673897,867.770029 989.458817,875.353389 991.243737,883.011095 C996.74724,905.909868 1007.6055,927.098667 1023.00044,944.86752 L978.154323,966.874133 C973.171422,969.327572 967.221688,969.030186 962.536273,965.981973 L883.03296,918.994881 C882.884217,918.920534 882.735473,918.771841 882.58673,918.697494 C881.173668,917.507947 880.950553,915.426241 882.1405,914.013654 L883.553562,912.303681 C896.048002,897.508695 905.34446,880.334615 910.773592,861.747949 C911.889167,857.956269 915.384636,855.428483 919.326334,855.577176 L944.761444,855.131096 L944.687073,855.205443 Z" id="Fill-34" fill="#37474F"></path>
                            <path d="M898.279078,842.046009 C896.866016,832.901369 894.411751,823.979769 891.139398,815.429903 C886.677097,803.757477 881.619824,792.382437 876.116321,781.156091 L847.631972,746.138812 L842.351583,742.272785 L812.528545,723.909159 L812.007943,723.760466 C798.472299,716.697533 780.697471,713.351933 764.484447,710.898493 L720.45642,703.83556 L693.533876,701.8282 C689.889664,701.530813 686.245452,702.49732 683.121842,704.579026 L656.943015,720.489212 L647.646557,727.998226 L654.563122,735.878972 L658.727935,739.670652 C662.372147,742.941905 666.98319,745.023612 671.89172,745.395345 L676.354021,746.287505 L681.411294,747.625745 L687.509771,748.666598 L693.087646,750.525265 L697.624318,751.863505 L706.772033,752.458278 L743.21415,751.714811 C757.93974,749.112678 773.037189,751.045691 786.647204,757.216465 L793.266283,759.669905 L793.191911,759.744251 L794.753716,760.785104 C827.179763,781.899557 848.45006,816.322063 852.763617,854.759288 L853.284219,861.153101 L801.000936,936.168886 L801.298423,941.744886 L808.512474,939.886219 L815.726526,937.730166 L823.163693,935.351072 L829.857143,932.302859 L830.229001,932.154166 L838.112398,929.180299 C848.747547,925.165579 858.564607,919.292193 867.19172,911.857527 C873.587684,906.355873 879.165559,899.887714 883.627859,892.750434 C888.387646,885.167074 892.849946,877.435021 897.089131,869.554274 C898.874051,866.134328 899.766511,862.342648 899.692139,858.476621 C899.617768,853.049315 899.097166,847.547662 898.279078,842.046009" id="Fill-36" fill="#37474F"></path>
                            <path d="M632.846595,740.042459 L630.169215,742.198513 L604.659733,770.970672 L607.932086,790.672538 L583.463807,823.310724 C582.199489,825.020697 582.050746,827.251097 583.091949,829.109763 L594.917044,840.261763 C605.031591,834.76011 622.137075,823.236377 631.507905,816.545177 C636.267692,812.902191 640.953107,809.110511 645.489778,805.170137 C653.819405,795.951151 661.479687,786.137391 668.32188,775.728858 L632.846595,740.042459 Z" id="Fill-38" fill="#37474F"></path>
                            <path d="M753.47744,964.941119 C690.930867,964.941119 639.614417,916.690134 634.780258,855.354136 L587.405506,860.261016 C594.693929,945.53664 666.239474,1012.52298 753.403069,1012.52298 C769.913579,1012.52298 785.829116,1010.14389 800.926564,1005.60874 L788.580867,959.662506 C777.499489,963.082453 765.748765,964.941119 753.47744,964.941119" id="Fill-40" fill="#26C6DA"></path>
                            <path d="M699.111825,849.183363 L654.26571,853.346776 C658.058665,904.794668 701.045489,945.387947 753.551886,945.387947 C764.038291,945.387947 774.152838,943.75232 783.672412,940.778453 L772.293547,901.151681 L699.111825,849.183363 Z" id="Fill-42" fill="#26C6DA"></path>
                            <path d="M879.611863,761.454224 L896.568604,736.696785 L872.695298,720.117479 L876.488253,714.244093 L873.736502,710.229373 L877.380713,677.888574 L866.373706,670.082174 L835.583836,686.066707 L832.460226,683.985 L827.774811,690.750547 L803.827134,673.799507 L787.16788,698.70564 L879.611863,761.454224 Z" id="Fill-44" fill="#607D8B"></path>
                            <path d="M832.237111,812.232996 L752.287568,756.844731 L702.155114,826.845833 L666.834521,802.196197 L654.860683,816.842489 L656.719975,837.882595 L682.006342,836.023929 L685.204323,831.191396 L744.924773,874.386808 L786.498535,904.42286 L783.821155,907.917153 L786.796022,924.719499 L802.488444,923.604299 L822.494422,895.94734 L790.217119,873.568994 L832.237111,812.232996 Z" id="Fill-46" fill="#607D8B"></path>
                            <path d="M551.558362,867.026562 L555.351317,867.249602 L559.367387,867.546989 L563.5322,867.844376 L567.845757,868.216109 L572.159314,868.587842 L576.621614,869.033922 L581.009542,869.554349 L585.397471,870.074775 L589.785399,870.669549 L594.098956,871.264322 L598.412513,871.933442 L602.651698,872.676909 L606.816511,873.420375 L610.981324,874.238189 L615.146138,875.130349 L619.23658,876.096855 L623.327021,877.137709 L627.417463,878.252909 L631.433533,879.442455 L635.375231,880.632002 L639.31693,881.970242 L643.258628,883.308482 L647.125955,884.721068 L650.993282,886.208002 L654.786237,887.694935 L658.50482,889.330562 L662.149032,890.891842 L665.793244,892.527468 L669.288712,894.237441 L672.635437,895.873068 L675.907791,897.508695 L678.957029,899.144321 L681.931896,900.705601 L684.758019,902.266881 L687.435399,903.828161 L690.038407,905.315094 L692.492672,906.802028 L694.872566,908.288961 L697.178088,909.701548 L699.483609,911.188481 L701.640388,912.601068 L703.797166,914.013654 L705.953944,915.426241 L708.036351,916.838827 L710.193129,918.251414 L712.275536,919.664001 L714.357943,921.150934 L716.44035,922.712214 L718.522756,924.273494 L720.679535,925.90912 L722.761941,927.544747 L724.91872,929.25472 L727.075498,930.964694 L729.232276,932.674667 L731.389055,934.458987 L733.471462,936.243307 L735.62824,938.101973 L737.785018,939.886293 L739.941797,941.819307 L742.024203,943.677973 L744.180982,945.685333 L746.33776,947.76704 L748.494538,949.848746 L750.651317,952.079146 L752.808095,954.383893 L754.964874,956.837333 L757.196024,959.365119 L759.352802,961.967253 L761.583952,964.643733 L763.815102,967.468906 L766.046252,970.368426 L768.277402,973.342292 L770.508552,976.390506 L772.814074,979.587412 L775.045224,982.784319 L777.276374,985.981225 L779.433152,989.252478 L781.664302,992.598078 L783.746709,995.869332 L785.829116,999.140585 L787.837151,1002.33749 L789.770814,1005.5344 L791.630106,1008.65696 L793.489398,1011.77952 L795.274318,1014.90208 L796.984866,1017.95029 L798.621043,1020.92416 L800.257219,1023.89802 L801.819024,1026.87189 L803.306458,1029.77141 L804.793891,1032.67093 L806.132581,1035.42176 L807.471271,1038.17258 L808.735589,1040.84906 L809.851164,1043.4512 L810.966739,1045.90464 L811.933571,1048.28373 L812.75166,1050.51413 L813.569748,1052.44714 L814.239093,1054.15712 L814.834066,1055.42101 L815.280296,1056.23882 L815.652155,1056.61056 L815.949641,1056.38752 L816.098385,1055.49536 L816.172756,1054.08277 L816.172756,1052.14976 L816.098385,1049.77066 L815.949641,1047.09418 L815.800898,1044.04597 L815.652155,1040.84906 L815.503411,1037.57781 L815.354668,1034.15786 L815.280296,1030.73792 L815.131553,1027.24362 L815.131553,1023.74933 L815.057181,1020.18069 L815.131553,1016.6864 L815.205925,1013.1921 L815.280296,1009.69781 L815.503411,1006.20352 L815.726526,1002.78357 L815.949641,999.363625 L816.3215,996.018025 L816.693358,992.672425 L817.065216,989.401172 L817.511446,986.129919 L817.957676,982.858665 L818.403906,979.661759 L818.924508,976.464852 L819.44511,973.342292 L820.040083,970.145386 L820.635056,967.022826 L821.304401,963.900266 L821.973746,960.703359 L822.791835,957.506453 L823.535551,954.309546 L824.428011,951.038293 L825.394843,947.841386 L826.436046,944.570133 L827.47725,941.29888 L828.667196,938.101973 L829.931515,934.905067 L831.270205,931.70816 L832.683267,928.511254 L834.1707,925.388694 L835.732505,922.340481 L837.368682,919.366614 L839.004858,916.392747 L840.641035,913.567574 L842.351583,910.816748 L843.98776,908.214614 L845.698308,905.686828 L847.334485,903.307734 L849.045033,901.002988 L850.755582,898.772588 L852.46613,896.542188 L854.25105,894.311788 L856.03597,892.155735 L857.969634,889.999682 L859.903297,887.769282 L861.911332,885.538882 L863.993739,883.234135 L866.076145,881.003735 L868.158552,878.773335 L870.166587,876.617282 L872.174622,874.461229 L874.108286,872.305175 L875.967577,870.297815 L877.678126,868.290456 L879.388674,866.357442 L881.024851,864.573122 L882.512284,862.714456 L883.999717,861.004482 L885.412779,859.368856 L886.751469,857.733229 L888.015787,856.246296 L889.205734,854.759363 L890.321309,853.421123 L891.213769,852.231576 L891.957486,851.190723 L892.552459,850.372909 L892.849946,849.703789 L892.849946,849.332056 L892.552459,849.183363 L892.031858,849.257709 L891.213769,849.480749 L890.246938,849.926829 L889.056991,850.372909 L887.792672,850.967683 L886.379611,851.562456 L884.892177,852.082883 L883.404744,852.603309 L881.842939,853.123736 L880.281134,853.495469 L878.570586,853.867203 L876.785666,854.238936 L874.852002,854.461976 L872.769596,854.685016 L870.612817,854.908056 L868.232924,854.982403 L865.778659,855.056749 L863.17565,855.131096 L860.423899,855.056749 L857.672147,854.982403 L854.846024,854.908056 L852.0199,854.759363 L849.193777,854.536323 L846.367653,854.238936 L843.54153,853.941549 L840.715407,853.569816 L837.963655,853.198083 L835.137532,852.677656 L832.38578,852.082883 L829.559656,851.488109 L826.807905,850.744643 L823.981781,849.926829 L821.155658,849.034669 L818.329535,848.068163 L815.503411,847.02731 L812.602916,845.91211 L809.702421,844.648216 L806.801926,843.384323 L803.901431,841.971736 L800.926564,840.55915 L797.951698,838.99787 L794.902459,837.362243 L791.927592,835.726617 L788.952726,834.016643 L785.903487,832.232323 L782.928621,830.448003 L780.028126,828.589337 L777.053259,826.73067 L774.152764,824.797657 L771.32664,822.93899 L768.500517,821.005977 L765.823137,819.072964 L763.145757,817.214297 L760.542749,815.429977 L758.088484,813.645657 L755.70859,811.861337 L753.47744,810.225711 L751.320662,808.590084 L749.238255,806.954457 L747.155848,805.393177 L745.222185,803.831898 L743.362893,802.270618 L741.503602,800.634991 L739.793053,799.073711 L738.008133,797.512431 L736.371957,795.876804 L734.73578,794.241178 L733.099603,792.605551 L731.537798,790.895578 L730.050365,789.111258 L728.562931,787.326938 L727.14987,785.468271 L725.81118,783.609605 L724.398118,781.602245 L723.1338,779.594885 L721.79511,777.513178 L720.530791,775.431472 L719.192101,773.201072 L717.927783,770.970672 L716.663465,768.665925 L715.399146,766.361179 L714.134828,763.982085 L712.944881,761.602992 L711.680563,759.223899 L710.490616,756.844806 L709.300669,754.540059 L708.185094,752.235312 L707.069519,750.004913 L706.028316,747.774513 L704.987113,745.692806 L704.020281,743.536753 L703.053449,741.455046 L702.235361,739.447686 L701.417273,737.440326 L700.673556,735.35862 L699.929839,733.35126 L699.334866,731.418246 L698.739893,729.410886 L698.219291,727.477873 L697.698689,725.54486 L697.252459,723.686193 L696.806229,721.901873 L696.434371,720.1919 L695.988141,718.556273 L695.616283,716.920647 L695.244424,715.433714 L694.946938,714.021127 L694.649451,712.60854 L694.351964,711.344647 L694.054477,710.080754 L693.831362,708.965554 L693.608247,707.850354 L693.385132,706.883847 L693.236389,706.066034 L693.013274,705.545607 L692.938902,705.248221 L692.790159,705.248221 L692.641416,705.619954 L692.567044,706.363421 L692.418301,707.627314 L692.343929,709.26294 L692.269557,711.195954 L692.120814,713.352007 L691.972071,715.7311 L691.897699,718.110193 L691.748956,720.489287 L691.525841,722.86838 L691.302726,725.024433 L691.079611,727.10614 L690.782124,729.1135 L690.484637,730.972166 L690.112779,732.830833 L689.666549,734.6895 L689.145947,736.548166 L688.550974,738.48118 L687.881629,740.488539 L687.137912,742.495899 L686.319824,744.651953 L685.427364,746.733659 L684.460532,748.889713 L683.493701,751.045766 L682.526869,753.127472 L681.485666,755.209179 L680.444462,757.290886 L679.328887,759.298246 L678.213312,761.305605 L677.097737,763.387312 L675.907791,765.394672 L674.717844,767.476379 L673.379154,769.632432 L672.040464,771.788485 L670.55303,774.018885 L669.065597,776.397978 L667.42942,778.777072 L665.793244,781.304858 L664.008324,783.832645 L662.07466,786.434778 L660.066625,789.036911 L657.909847,791.713391 L655.678697,794.464218 L653.373175,797.215044 L650.91891,799.965871 L648.464645,802.642351 L646.01038,805.318831 L643.556115,807.846617 L641.10185,810.300057 L638.796328,812.679151 L636.490807,814.835204 L634.259656,816.842564 L632.028506,818.775577 L629.871728,820.559897 L627.789321,822.344217 L625.632543,823.979844 L623.401393,825.61547 L621.170243,827.251097 L618.864721,828.812377 L616.484828,830.448003 L614.104934,832.009283 L611.650669,833.64491 L609.196404,835.20619 L606.667768,836.76747 L604.139131,838.254403 L601.610494,839.741336 L599.081858,841.153923 L596.553221,842.56651 L594.098956,843.90475 L591.719062,845.24299 L589.339169,846.432536 L587.033647,847.622083 L584.802497,848.737283 L582.645719,849.703789 L580.637684,850.670296 L578.704021,851.562456 L576.770357,852.305923 L574.911065,853.123736 L573.126145,853.792856 L571.266854,854.536323 L569.407562,855.205443 L567.473899,855.948909 L565.465864,856.692376 L563.309085,857.435843 L561.152307,858.179309 L558.921157,858.922776 L556.541263,859.666242 L554.16137,860.409709 L551.632733,861.078829 L549.029725,861.747949 L546.426717,862.417069 L543.674965,863.011842 L541.071957,863.532269 L538.468948,864.052696 L536.014683,864.498776 L533.783533,864.944856 L531.84987,865.242242 L530.139321,865.539629 L528.875003,865.762669 L527.908171,865.911362 L527.38757,866.060056 L527.164455,866.134402 L527.38757,866.208749 L527.908171,866.208749 L528.800631,866.283096 L530.06495,866.283096 L531.701126,866.283096 L533.63479,866.357442 L535.940311,866.431789 L538.54332,866.431789 L541.369443,866.580482 L544.567425,866.654829 L547.91415,866.803522 L551.558362,867.026562 Z" id="Fill-48" fill-opacity="0.54" fill="#FFFFFF"></path>
                            <path d="M551.558362,867.026562 L555.351317,867.249602 L559.367387,867.546989 L563.5322,867.844376 L567.845757,868.216109 L572.159314,868.587842 L576.621614,869.033922 L581.009542,869.554349 L585.397471,870.074775 L589.785399,870.669549 L594.098956,871.264322 L598.412513,871.933442 L602.651698,872.676909 L606.816511,873.420375 L610.981324,874.238189 L615.146138,875.130349 L619.23658,876.096855 L623.327021,877.137709 L627.417463,878.252909 L631.433533,879.442455 L635.375231,880.632002 L639.31693,881.970242 L643.258628,883.308482 L647.125955,884.721068 L650.993282,886.208002 L654.786237,887.694935 L658.50482,889.330562 L662.149032,890.891842 L665.793244,892.527468 L669.288712,894.237441 L672.635437,895.873068 L675.907791,897.508695 L678.957029,899.144321 L681.931896,900.705601 L684.758019,902.266881 L687.435399,903.828161 L690.038407,905.315094 L692.492672,906.802028 L694.872566,908.288961 L697.178088,909.701548 L699.483609,911.188481 L701.640388,912.601068 L703.797166,914.013654 L705.953944,915.426241 L708.036351,916.838827 L710.193129,918.251414 L712.275536,919.664001 L714.357943,921.150934 L716.44035,922.712214 L718.522756,924.273494 L720.679535,925.90912 L722.761941,927.544747 L724.91872,929.25472 L727.075498,930.964694 L729.232276,932.674667 L731.389055,934.458987 L733.471462,936.243307 L735.62824,938.101973 L737.785018,939.886293 L739.941797,941.819307 L742.024203,943.677973 L744.180982,945.685333 L746.33776,947.76704 L748.494538,949.848746 L750.651317,952.079146 L752.808095,954.383893 L754.964874,956.837333 L757.196024,959.365119 L759.352802,961.967253 L761.583952,964.643733 L763.815102,967.468906 L766.046252,970.368426 L768.277402,973.342292 L770.508552,976.390506 L772.814074,979.587412 L775.045224,982.784319 L777.276374,985.981225 L779.433152,989.252478 L781.664302,992.598078 L783.746709,995.869332 L785.829116,999.140585 L787.837151,1002.33749 L789.770814,1005.5344 L791.630106,1008.65696 L793.489398,1011.77952 L795.274318,1014.90208 L796.984866,1017.95029 L798.621043,1020.92416 L800.257219,1023.89802 L801.819024,1026.87189 L803.306458,1029.77141 L804.793891,1032.67093 L806.132581,1035.42176 L807.471271,1038.17258 L808.735589,1040.84906 L809.851164,1043.4512 L810.966739,1045.90464 L811.933571,1048.28373 L812.75166,1050.51413 L813.569748,1052.44714 L814.239093,1054.15712 L814.834066,1055.42101 L815.280296,1056.23882 L815.652155,1056.61056 L815.949641,1056.38752 L816.098385,1055.49536 L816.172756,1054.08277 L816.172756,1052.14976 L816.098385,1049.77066 L815.949641,1047.09418 L815.800898,1044.04597 L815.652155,1040.84906 L815.503411,1037.57781 L815.354668,1034.15786 L815.280296,1030.73792 L815.131553,1027.24362 L815.131553,1023.74933 L815.057181,1020.18069 L815.131553,1016.6864 L815.205925,1013.1921 L815.280296,1009.69781 L815.503411,1006.20352 L815.726526,1002.78357 L815.949641,999.363625 L816.3215,996.018025 L816.693358,992.672425 L817.065216,989.401172 L817.511446,986.129919 L817.957676,982.858665 L818.403906,979.661759 L818.924508,976.464852 L819.44511,973.342292 L820.040083,970.145386 L820.635056,967.022826 L821.304401,963.900266 L821.973746,960.703359 L822.791835,957.506453 L823.535551,954.309546 L824.428011,951.038293 L825.394843,947.841386 L826.436046,944.570133 L827.47725,941.29888 L828.667196,938.101973 L829.931515,934.905067 L831.270205,931.70816 L832.683267,928.511254 L834.1707,925.388694 L835.732505,922.340481 L837.368682,919.366614 L839.004858,916.392747 L840.641035,913.567574 L842.351583,910.816748 L843.98776,908.214614 L845.698308,905.686828 L847.334485,903.307734 L849.045033,901.002988 L850.755582,898.772588 L852.46613,896.542188 L854.25105,894.311788 L856.03597,892.155735 L857.969634,889.999682 L859.903297,887.769282 L861.911332,885.538882 L863.993739,883.234135 L866.076145,881.003735 L868.158552,878.773335 L870.166587,876.617282 L872.174622,874.461229 L874.108286,872.305175 L875.967577,870.297815 L877.678126,868.290456 L879.388674,866.357442 L881.024851,864.573122 L882.512284,862.714456 L883.999717,861.004482 L885.412779,859.368856 L886.751469,857.733229 L888.015787,856.246296 L889.205734,854.759363 L890.321309,853.421123 L891.213769,852.231576 L891.957486,851.190723 L892.552459,850.372909 L892.849946,849.703789 L892.849946,849.332056 L892.552459,849.183363 L892.031858,849.257709 L891.213769,849.480749 L890.246938,849.926829 L889.056991,850.372909 L887.792672,850.967683 L886.379611,851.562456 L884.892177,852.082883 L883.404744,852.603309 L881.842939,853.123736 L880.281134,853.495469 L878.570586,853.867203 L876.785666,854.238936 L874.852002,854.461976 L872.769596,854.685016 L870.612817,854.908056 L868.232924,854.982403 L865.778659,855.056749 L863.17565,855.131096 L860.423899,855.056749 L857.672147,854.982403 L854.846024,854.908056 L852.0199,854.759363 L849.193777,854.536323 L846.367653,854.238936 L843.54153,853.941549 L840.715407,853.569816 L837.963655,853.198083 L835.137532,852.677656 L832.38578,852.082883 L829.559656,851.488109 L826.807905,850.744643 L823.981781,849.926829 L821.155658,849.034669 L818.329535,848.068163 L815.503411,847.02731 L812.602916,845.91211 L809.702421,844.648216 L806.801926,843.384323 L803.901431,841.971736 L800.926564,840.55915 L797.951698,838.99787 L794.902459,837.362243 L791.927592,835.726617 L788.952726,834.016643 L785.903487,832.232323 L782.928621,830.448003 L780.028126,828.589337 L777.053259,826.73067 L774.152764,824.797657 L771.32664,822.93899 L768.500517,821.005977 L765.823137,819.072964 L763.145757,817.214297 L760.542749,815.429977 L758.088484,813.645657 L755.70859,811.861337 L753.47744,810.225711 L751.320662,808.590084 L749.238255,806.954457 L747.155848,805.393177 L745.222185,803.831898 L743.362893,802.270618 L741.503602,800.634991 L739.793053,799.073711 L738.008133,797.512431 L736.371957,795.876804 L734.73578,794.241178 L733.099603,792.605551 L731.537798,790.895578 L730.050365,789.111258 L728.562931,787.326938 L727.14987,785.468271 L725.81118,783.609605 L724.398118,781.602245 L723.1338,779.594885 L721.79511,777.513178 L720.530791,775.431472 L719.192101,773.201072 L717.927783,770.970672 L716.663465,768.665925 L715.399146,766.361179 L714.134828,763.982085 L712.944881,761.602992 L711.680563,759.223899 L710.490616,756.844806 L709.300669,754.540059 L708.185094,752.235312 L707.069519,750.004913 L706.028316,747.774513 L704.987113,745.692806 L704.020281,743.536753 L703.053449,741.455046 L702.235361,739.447686 L701.417273,737.440326 L700.673556,735.35862 L699.929839,733.35126 L699.334866,731.418246 L698.739893,729.410886 L698.219291,727.477873 L697.698689,725.54486 L697.252459,723.686193 L696.806229,721.901873 L696.434371,720.1919 L695.988141,718.556273 L695.616283,716.920647 L695.244424,715.433714 L694.946938,714.021127 L694.649451,712.60854 L694.351964,711.344647 L694.054477,710.080754 L693.831362,708.965554 L693.608247,707.850354 L693.385132,706.883847 L693.236389,706.066034 L693.013274,705.545607 L692.938902,705.248221 L692.790159,705.248221 L692.641416,705.619954 L692.567044,706.363421 L692.418301,707.627314 L692.343929,709.26294 L692.269557,711.195954 L692.120814,713.352007 L691.972071,715.7311 L691.897699,718.110193 L691.748956,720.489287 L691.525841,722.86838 L691.302726,725.024433 L691.079611,727.10614 L690.782124,729.1135 L690.484637,730.972166 L690.112779,732.830833 L689.666549,734.6895 L689.145947,736.548166 L688.550974,738.48118 L687.881629,740.488539 L687.137912,742.495899 L686.319824,744.651953 L685.427364,746.733659 L684.460532,748.889713 L683.493701,751.045766 L682.526869,753.127472 L681.485666,755.209179 L680.444462,757.290886 L679.328887,759.298246 L678.213312,761.305605 L677.097737,763.387312 L675.907791,765.394672 L674.717844,767.476379 L673.379154,769.632432 L672.040464,771.788485 L670.55303,774.018885 L669.065597,776.397978 L667.42942,778.777072 L665.793244,781.304858 L664.008324,783.832645 L662.07466,786.434778 L660.066625,789.036911 L657.909847,791.713391 L655.678697,794.464218 L653.373175,797.215044 L650.91891,799.965871 L648.464645,802.642351 L646.01038,805.318831 L643.556115,807.846617 L641.10185,810.300057 L638.796328,812.679151 L636.490807,814.835204 L634.259656,816.842564 L632.028506,818.775577 L629.871728,820.559897 L627.789321,822.344217 L625.632543,823.979844 L623.401393,825.61547 L621.170243,827.251097 L618.864721,828.812377 L616.484828,830.448003 L614.104934,832.009283 L611.650669,833.64491 L609.196404,835.20619 L606.667768,836.76747 L604.139131,838.254403 L601.610494,839.741336 L599.081858,841.153923 L596.553221,842.56651 L594.098956,843.90475 L591.719062,845.24299 L589.339169,846.432536 L587.033647,847.622083 L584.802497,848.737283 L582.645719,849.703789 L580.637684,850.670296 L578.704021,851.562456 L576.770357,852.305923 L574.911065,853.123736 L573.126145,853.792856 L571.266854,854.536323 L569.407562,855.205443 L567.473899,855.948909 L565.465864,856.692376 L563.309085,857.435843 L561.152307,858.179309 L558.921157,858.922776 L556.541263,859.666242 L554.16137,860.409709 L551.632733,861.078829 L549.029725,861.747949 L546.426717,862.417069 L543.674965,863.011842 L541.071957,863.532269 L538.468948,864.052696 L536.014683,864.498776 L533.783533,864.944856 L531.84987,865.242242 L530.139321,865.539629 L528.875003,865.762669 L527.908171,865.911362 L527.38757,866.060056 L527.164455,866.134402 L527.38757,866.208749 L527.908171,866.208749 L528.800631,866.283096 L530.06495,866.283096 L531.701126,866.283096 L533.63479,866.357442 L535.940311,866.431789 L538.54332,866.431789 L541.369443,866.580482 L544.567425,866.654829 L547.91415,866.803522 L551.558362,867.026562 L551.558362,867.026562 Z" id="Stroke-50" stroke="#FFFFFF" stroke-width="0.699614079"></path>
                            <path d="M965.659809,911.262828 C978.803514,911.262828 989.458743,921.914474 989.458743,935.05376 C989.458743,948.193046 978.803514,958.844693 965.659809,958.844693 C952.516104,958.844693 941.860875,948.193046 941.860875,935.05376 C941.860875,921.914474 952.516104,911.262828 965.659809,911.262828" id="Fill-60" fill="#FF5252"></path>
                            <mask id="mask-4" fill="white">
                                <use xlink:href="#path-3"></use>
                            </mask>
                            <g></g>
                            <path d="M783.151513,666.885119 L792.894201,666.885119 L792.894201,656.402239 L783.151513,656.402239 L783.151513,666.885119 Z" id="Fill-68" fill="#2A8EA2" mask="url(#mask-4)"></path>
                            <path d="M911.44264,746.064316 L921.185328,746.064316 L921.185328,735.581437 L911.44264,735.581437 L911.44264,746.064316 Z" id="Fill-70" fill="#2A8EA2" mask="url(#mask-4)"></path>
                            <path d="M826.58479,962.190293 L834.914417,953.937813 C835.806877,953.045653 837.219938,953.12 838.038027,953.937813 L892.403716,1009.02869 C893.296176,1009.92085 893.221804,1011.33344 892.403716,1012.15125 L884.074089,1020.40373 C883.181629,1021.29589 881.768567,1021.22154 880.950479,1020.40373 L826.58479,965.312853 C825.69233,964.420693 825.69233,963.008106 826.58479,962.190293" id="Fill-79" fill="#5C6BC0" mask="url(#mask-4)"></path>
                            <path d="M937.249906,971.409205 L949.298116,983.899444 C950.190576,984.791604 950.116205,986.204191 949.223745,987.022004 L914.120317,1020.99843 C913.227857,1021.89059 911.814796,1021.81624 910.996707,1020.92408 L898.948497,1008.43384 C898.056037,1007.54168 898.130409,1006.1291 899.022869,1005.31128 L934.126296,971.334858 C934.944384,970.517045 936.357446,970.517045 937.249906,971.409205" id="Fill-80" fill="#5C6BC0" mask="url(#mask-4)"></path>
                            <path d="M926.91217,652.982441 L926.46594,637.741375 L939.332238,621.831189 L911.665978,599.378496 L872.695224,614.842602 L876.934409,629.265855 L866.968605,644.060841 L877.603754,651.495508 L875.446976,654.618068 L875.446976,659.822334 L882.735399,665.547027 L888.015787,663.762707 L890.321309,661.160574 L902.220776,669.784787 L913.897128,653.131134 L926.91217,652.982441 Z" id="Fill-89" fill="#B0BEC5" mask="url(#mask-4)"></path>
                            <path d="M937.621764,713.72374 L951.380523,710.229447 C952.57047,709.93206 953.760416,710.675527 954.057903,711.865074 L974.658855,792.531205 C974.956342,793.720751 974.212625,794.910298 973.022678,795.207684 L959.26392,798.701978 C958.073973,798.999364 956.884026,798.255898 956.58654,797.066351 L935.985588,716.325874 C935.688101,715.210674 936.431818,714.021127 937.621764,713.72374" id="Fill-90" fill="#B0BEC5" mask="url(#mask-4)"></path>
                            <path d="M807.991873,612.835242 L810.446138,628.448042 C810.669253,629.637589 809.776793,630.827135 808.586846,630.975828 L713.539854,645.845161 C712.349908,646.068201 711.159961,645.176041 711.011218,643.986495 L708.556953,628.373695 C708.333838,627.184149 709.226298,625.994602 710.416244,625.845909 L805.463236,610.976576 C806.653183,610.753536 807.843129,611.571349 807.991873,612.835242" id="Fill-91" fill="#B0BEC5" mask="url(#mask-4)"></path>
                            <path d="M780.771842,697.218706 L781.143701,691.7914 C781.218072,690.601853 779.953754,689.561 778.317577,689.412307 L763.071385,683.613267 L704.912741,684.282387 C703.276564,684.133694 701.863503,685.025853 701.789131,686.2154 L701.417273,691.642707 C701.342901,692.832253 702.607219,693.873107 704.243396,694.0218 L777.648232,699.15172 C779.284409,699.300413 780.697471,698.408253 780.771842,697.218706" id="Fill-92" fill="#B0BEC5" mask="url(#mask-4)"></path>
                            <path d="M885.338407,764.279472 L890.544424,762.569499 C891.659999,762.197765 892.998689,763.164272 893.519291,764.725552 L902.815749,778.107952 L916.20265,834.685763 C916.723251,836.247043 916.20265,837.808323 915.087075,838.180056 L909.881058,839.89003 C908.765483,840.261763 907.426793,839.295256 906.906191,837.733976 L884.222832,767.773765 C883.702231,766.212485 884.222832,764.651205 885.338407,764.279472" id="Fill-93" fill="#B0BEC5" mask="url(#mask-4)"></path>
                        </g>
                    </g>
                </g>
            </g>
        </g>
    </g>
</svg>
