<?xml version="1.0" encoding="UTF-8" standalone="no"?>
<svg width="1254px" height="822px" viewBox="0 0 1254 822" version="1.1" xmlns="http://www.w3.org/2000/svg" xmlns:xlink="http://www.w3.org/1999/xlink">
    <g stroke="none" stroke-width="1" fill="none" fill-rule="evenodd">
        <g>
            <path d="M489.851206,687.353022 L480.297618,689.739588 C477.710188,689.938469 475.32179,688.347424 474.459314,685.894565 L467.095089,650.029776 C388.477017,667.929023 279.937636,637.83177 261.162181,500.339031 C256.518076,500.073857 239.600263,502.858184 239.600263,502.858184 L239.86564,504.515522 L233.164859,505.576218 L233.894647,509.752709 L226.596767,511.078579 L224.473747,501.068259 L150.03537,516.912408 C145.059543,549.793989 146.38643,583.338505 154.016032,615.756031 C157.731316,631.60018 162.707144,647.112861 168.943514,662.095195 C174.516441,675.552777 181.018188,688.546305 188.515102,701.075778 C206.494425,731.90226 232.766793,757.093794 264.413055,773.667171 C300.438045,788.980972 339.713909,795.079975 378.658051,791.367539 C417.336816,790.572016 455.352137,781.423512 490.182928,764.518667 L486.86571,757.690436 L500.532649,750.39815 L489.851206,687.353022 Z" id="Fill-4" fill="#37474F"></path>
            <path d="M488.391564,589.768975 C485.605101,601.56922 483.880147,613.568345 483.150359,625.633764 L504.4469,618.010011 L509.091006,613.502052 L488.391564,589.768975 Z" id="Fill-6" fill="#37474F"></path>
            <path d="M1251.88258,480.053217 L1249.95859,476.1419 L1211.54521,483.434186 C1207.10013,484.296002 1202.65506,485.091524 1198.20999,485.820752 C1185.86994,487.875851 1173.26451,488.538786 1160.79177,487.676971 C1149.24785,486.881448 1137.63758,486.417394 1126.09366,486.417394 C1111.76328,486.3511 1097.4329,487.743264 1083.36789,490.527591 C1082.43907,490.726472 1081.5766,491.124233 1080.91315,491.720875 L1067.84331,497.554703 L1042.23439,506.37174 L1007.80166,515.520245 L934.35845,536.20382 L830.197797,565.505551 L722.653582,595.602804 C719.469053,596.46462 716.218179,597.127555 712.967305,597.392729 L710.976974,598.718599 L708.256855,600.641111 L704.475226,603.226558 L702.219518,606.67382 L697.24369,614.430161 L690.277532,612.640236 L679.330712,616.021205 L676.477904,622.71685 L671.634766,620.860632 L662.014833,640.085749 L661.086012,642.207142 L669.710779,648.703906 L633.022345,695.63971 L626.852319,691.595806 L603.830825,720.433483 L581.207397,738.200144 L537.751838,757.093794 L503.58449,764.120906 C464.507659,785.865177 420.654034,797.665422 375.937932,798.593531 C346.215657,801.377858 316.294348,798.659825 287.567238,790.505723 L287.301861,790.240549 C277.549239,787.456221 267.995651,784.141546 258.641095,780.163935 C226.265045,763.126503 199.329233,737.404622 180.8855,705.782617 C173.255898,692.98797 166.555117,679.662975 160.849502,665.873925 C154.480443,650.49383 149.371927,634.583388 145.523953,618.407772 C138.756828,589.636388 136.832842,559.936896 139.818338,530.568871 C122.170737,518.238278 110.825851,498.81428 108.769175,477.401476 C106.646156,455.856086 111.754672,434.178108 123.298591,415.814806 L138.756828,391.219914 L150.433436,375.110591 L150.234403,359.59791 L116.067055,359.59791 L116.067055,302.18773 L119.185241,302.254024 L126.01871,302.386611 L134.112723,302.452904 L143.135556,302.519198 L152.755489,302.519198 L162.640799,302.519198 L172.393421,302.452904 L181.615288,302.320317 L189.974678,302.121437 L197.139869,301.856263 L202.77914,301.524795 L207.025179,301.060741 L210.010676,300.530393 L212.001007,299.933751 L213.128861,299.270816 L213.593272,298.541587 L213.593272,297.746065 L213.327894,296.88425 L212.996172,296.022434 L212.598106,295.094325 L212.133696,294.166216 L211.669285,293.238107 L211.204874,292.376291 L210.740464,291.580769 L210.276053,290.85154 L209.877987,290.254899 L209.546265,289.790844 L209.214544,289.393083 L208.816477,289.127909 L208.219378,288.929028 L207.356901,288.796441 L206.162703,288.730148 L204.570438,288.730148 L202.447418,288.730148 L199.793644,288.730148 L196.54277,288.730148 L192.694797,288.730148 L188.316069,288.730148 L183.406586,288.730148 L177.900003,288.730148 L171.862666,288.730148 L165.294574,288.730148 L158.262071,288.663854 L150.765158,288.464974 L142.870179,288.067213 L134.643478,287.337984 L126.151399,286.144701 L117.460287,284.42107 L108.636487,282.034503 L99.6799973,278.918708 L90.7235081,274.941098 L81.9660519,270.101672 L73.4739733,264.533017 L65.4463051,258.235133 L58.0157363,251.208021 L51.1159223,243.584268 L45.3439626,235.297579 L40.6335127,226.414249 L37.1172614,217.066864 L34.6625199,207.321718 L33.1365995,197.443985 L32.4731559,187.566252 L32.5395002,177.821106 L33.2029439,168.473721 L34.3307981,159.656684 L35.7903741,151.502583 L37.4489832,144.210297 L39.3066254,137.647239 L41.3633007,131.61453 L43.6190091,125.979582 L46.0074063,120.543514 L48.5284921,115.173739 L51.1822667,109.737672 L53.96873,104.03643 L56.8215377,97.9374269 L59.7406898,91.57325 L62.6598418,85.076486 L65.4463051,78.6460156 L68.1000797,72.4144257 L70.5548212,66.5805968 L72.7441853,61.277116 L74.6018275,56.6365703 L76.0614035,52.7915468 L77.1892577,49.6757518 L77.9853901,47.222892 L78.516145,45.3003802 L78.8478668,43.841923 L79.0468999,42.7149333 L79.1795886,41.8531177 L79.245933,41.1238891 L79.3122774,40.3946605 L79.3786217,39.7317254 L79.3786217,39.0687903 L79.3786217,38.4058552 L79.3786217,37.7429201 L79.3122774,37.079985 L79.245933,36.4170499 L79.1132443,35.7541148 L78.9805555,35.0911797 L78.7815224,34.4282446 L78.516145,33.7653095 L78.2507675,33.1023744 L77.9190457,32.5057328 L77.5209795,31.9090912 L77.1229133,31.3787431 L76.6585028,30.9146886 L76.1277479,30.450634 L75.5306486,30.0528729 L74.9335493,29.7214054 L74.2037613,29.4562314 L73.4076289,29.2573508 L72.5451522,29.0584703 L71.616331,28.9258833 L70.5548212,28.7932963 L69.426967,28.7270027 L68.1664241,28.6607092 L66.7731924,28.6607092 L65.1809277,28.6607092 L63.4559742,28.6607092 L61.5319876,28.6607092 L59.4089679,28.6607092 L57.0869152,28.6607092 L54.4994849,28.6607092 L51.7130216,28.6607092 L48.7938696,28.6607092 L45.7420288,28.6607092 L42.6238437,28.6607092 L39.5056585,28.6607092 L36.3874734,28.6607092 L33.2692882,28.6607092 L30.2174475,28.6607092 L27.2982954,28.6607092 L24.5118321,28.7270027 L21.8580575,28.7932963 L19.403316,28.8595898 L17.1476076,28.9258833 L15.1572767,29.0584703 L13.3659788,29.1910573 L11.8400584,29.3236443 L10.5795155,29.5225249 L9.51800566,29.7214054 L8.65552892,29.9865794 L7.92574091,30.318047 L7.32864163,30.6495145 L6.79788671,31.0472756 L6.33347615,31.5113302 L5.8690656,31.9753847 L5.40465505,32.5057328 L4.9402445,33.1023744 L4.67486704,34.2293641 L4.21045648,34.8922992 L3.74604593,35.5552343 L3.34797974,36.2844629 L2.94991355,37.0136915 L2.55184736,37.8092136 L2.15378118,38.8036162 L1.82205935,40.2620734 L1.49033753,42.3834658 L1.22496007,45.4329672 L0.959582611,49.6094583 L0.760549517,55.1118196 L0.561516423,62.1389316 L0.428827694,70.8233814 L0.296138964,80.7674079 L0.296138964,91.6395435 L0.362483329,102.90944 L0.561516423,114.113043 L0.893238247,124.786298 L1.3576488,134.531444 L2.02109245,142.884426 L2.81722482,149.513777 L3.74604593,154.684671 L4.80755577,158.794869 L5.8690656,162.242131 L6.86423107,165.490513 L7.79305218,168.871482 L8.58918456,172.849093 L9.18628384,177.821106 L9.58435003,184.11899 L9.78338312,191.411276 L9.91607185,199.43279 L10.0487606,207.785772 L10.2477937,216.072461 L10.6458599,223.961389 L11.2429591,231.121088 L12.1717803,237.153797 L13.4986675,241.794343 L15.1572767,245.175312 L17.0149189,247.495585 L19.0052498,248.954042 L21.0619251,249.749564 L23.1186004,250.147325 L25.1089314,250.279912 L26.9002292,250.412499 L28.492494,250.677673 L29.8193813,251.075434 L30.9472355,251.605782 L31.9424009,252.268718 L32.871222,253.06424 L33.7336988,253.926055 L34.5298312,254.920458 L35.3259635,255.981154 L36.1884403,257.108144 L37.1172614,258.235133 L38.0460825,259.428417 L39.041248,260.6217 L40.0364134,261.814983 L41.0315789,263.008266 L42.0930887,264.201549 L43.1545986,265.394832 L44.2161084,266.588116 L45.2776183,267.715105 L46.3391281,268.842095 L47.4006379,269.969085 L48.4621478,271.029781 L49.5236576,272.090477 L50.5851674,273.151173 L51.6466773,274.211869 L52.7745315,275.272565 L53.9023857,276.333262 L55.0302399,277.393958 L56.1580941,278.454654 L57.2859483,279.449056 L58.4138025,280.443459 L59.5416567,281.371568 L60.6695109,282.299677 L61.7310207,283.161493 L62.7925305,283.957015 L63.8540404,284.752537 L64.9155502,285.481766 L66.0434044,286.210994 L67.1712586,286.940223 L68.3654572,287.669452 L69.6260001,288.39868 L70.9528874,289.194202 L72.3461191,289.989725 L73.8056951,290.785247 L75.2652711,291.580769 L76.7911915,292.376291 L78.3171119,293.171813 L79.9093766,293.967335 L81.5016414,294.762857 L83.0939061,295.558379 L84.7525153,296.287608 L86.4111244,297.016837 L87.1409124,297.348304 L89.064899,299.53599 L90.6571637,301.789969 L91.984051,305.76758 L92.9128721,311.535115 L93.5763158,320.8825 L94.2397594,331.688342 L94.9032031,344.350403 L95.5666467,405.141551 L89.4629652,405.141551 L89.4629652,418.002492 L29.4876594,458.375239 L24.2464546,461.689915 L20.9292364,465.998993 L20.1994484,473.88792 L20.6638589,485.290404 L19.7350378,512.40445 L16.8822301,540.446604 L16.3514752,593.216238 L15.8870647,688.745185 L16.3514752,772.407595 L16.8158858,801.709326 C16.9485745,812.581462 25.8387194,821.265911 36.7191952,821.265911 L582.799661,821.265911 L583.131383,820.86815 L588.836998,816.095018 L605.489434,812.316288 L630.700293,801.841913 L682.117175,781.887567 L736.386866,759.082599 L782.562544,741.050765 L827.278645,727.261715 L885.329964,713.936719 L961.625984,691.529513 L1003.02487,678.668572 L1030.62412,673.895439 L1061.5406,673.895439 L1088.67544,676.74606 L1113.8863,675.817951 L1146.72676,660.636737 L1188.12565,630.208016 L1226.20731,601.237753 L1235.69455,588.376812 L1244.25298,562.257169 L1247.10579,545.617498 L1249.02977,527.585663 L1250.95376,505.244751 L1253.34216,487.212916 L1251.88258,480.053217 Z" id="Fill-8" fill="#37474F"></path>
            <path d="M332.017963,286.741276 L288.496059,286.741276 L255.788288,287.470505 C255.456566,287.470505 255.257533,287.735679 255.257533,288.067146 C255.257533,288.199733 255.323877,288.33232 255.390221,288.398614 L279.605914,319.026215 L317.753924,362.249584 C318.417368,361.652942 319.147156,361.122594 319.8106,360.525953 L334.87077,350.64822 L341.571551,346.670609 L349.400186,339.51091 L354.641391,331.95345 L360.811417,321.545369 L366.052622,310.408059 L368.640052,300.662913 L369.104463,291.646996 L368.839085,285.746874 L368.30833,282.896253 C356.366344,285.415406 344.158981,286.741276 332.017963,286.741276" id="Fill-10" fill="#37474F"></path>
            <path d="M634.017445,234.10423 L637.60004,229.19851 L642.509523,221.110702 L647.219973,210.835208 L654.451509,195.123646 L662.280144,176.826637 L685.898738,125.979515 L689.547678,117.162478 L690.144777,116.035489 L697.243624,101.981265 C698.7032,99.1306438 701.356975,97.075545 704.541504,96.4126099 L745.741355,95.8822618 L793.973708,95.0867397 L841.940684,94.4900981 L874.1177,93.827163 L889.376904,93.3631084 C890.703792,93.2968149 892.030679,93.6282825 893.158533,94.2912176 L893.821977,102.84308 C893.888321,103.572309 894.48542,104.102657 895.215208,104.102657 L936.87947,99.5284048 L972.440049,95.2856202 L1003.68824,91.9046512 L1029.09814,89.1866173 L1052.18598,86.6011704 L1084.69471,82.5572663 L1140.68936,75.7953284 L1162.91472,73.408762 L1163.51182,73.408762 C1165.90022,73.4750555 1167.8242,75.4638608 1167.75786,77.8504272 L1169.88088,130.686354 L1172.40196,197.377625 L1173.52982,227.87264 C1173.92788,238.148134 1174.65767,248.489921 1175.65284,258.765415 L1181.49114,299.403337 L1185.73718,339.113149 L1193.10141,394.600817 C1193.30044,396.059274 1192.37162,397.451437 1190.97839,397.849199 L1162.25128,399.373949 L1054.77341,413.494467 L1004.68341,419.063122 L933.69494,427.34981 C932.301708,427.482397 930.974821,428.012745 929.846967,428.808268 C928.321046,429.868964 927.325881,431.460008 927.060504,433.249933 C926.662437,436.233141 926.39706,439.216349 926.198027,442.199557 L928.851801,448.364853 L935.950648,456.850422 L939.068834,459.701043 C944.907138,464.93823 952.802117,467.059623 960.498063,465.601165 L1006.20933,457.447064 L1038.51904,452.872812 L1085.49085,448.364853 L1125.36381,444.851297 L1153.82554,443.260253 C1175.45381,442.06697 1197.14841,441.669208 1218.84302,442.06697 L1236.09255,442.000676 C1241.86451,442.000676 1246.90669,438.089359 1248.29992,432.454411 C1248.96336,429.80267 1249.36143,427.084636 1249.42777,424.300309 L1245.84518,393.274946 L1237.15406,305.50234 L1232.90802,247.296638 L1229.85618,204.07327 L1227.20241,129.625658 L1224.15057,81.8280377 L1223.28809,76.3256764 C1222.16024,69.0333904 1221.56314,61.6748108 1221.36411,54.2499377 C1221.16507,45.830662 1220.76701,37.4113862 1220.23625,29.058404 C1219.30743,14.2086578 1208.02889,2.14323906 1193.30044,0.0881402596 L912.796465,15.136767 L862.573781,17.1918658 L733.268614,14.6064189 L687.092936,13.0153747 C663.673376,19.3132581 648.215139,41.5215838 650.404503,65.6524214 L645.295987,149.314831 C644.035444,170.46246 637.533696,190.880861 626.454187,208.912696 L616.701565,225.353486 C613.981446,229.927738 615.507367,235.894154 620.085128,238.612188 C624.662889,241.330222 630.633882,239.805471 633.354001,235.231219 C633.685723,234.899752 633.884756,234.501991 634.017445,234.10423" id="Fill-12" fill="#37474F"></path>
            <path d="M651.266979,248.887682 L669.644368,248.688802 L726.501489,247.89328 L764.981221,247.89328 L849.63663,246.037061 L891.300891,245.838181 C892.893156,245.838181 894.48542,246.434822 895.679619,247.495519 L895.745963,256.97549 L897.205539,291.580702 L897.205539,292.044757 C897.006506,293.436921 895.745963,294.497617 894.286387,294.298736 C892.893156,294.099856 891.831646,292.840279 892.030679,291.381822 L892.030679,281.968144 L869.407251,281.968144 L774.136743,283.890655 L661.484012,285.614287 L661.085945,294.961671 C661.019601,295.956074 660.289813,296.751596 659.294647,296.884183 C658.299482,297.01677 657.237972,296.685303 656.508184,296.022368 L642.973934,271.493769 C642.575868,270.698247 642.376834,269.836431 642.443179,268.974616 L645.362331,264.135189 C647.219973,261.019394 648.54686,257.638426 649.342993,254.124869 L649.873748,250.876488 C649.940092,249.882085 650.470847,249.21915 651.266979,248.887682" id="Fill-14" fill="#37474F"></path>
            <path d="M663.142621,488.671373 L662.943588,485.754459 L662.545521,478.661053 L662.545521,478.329586 C662.67821,477.46777 663.474342,476.871128 664.403164,477.003715 C665.26564,477.136302 665.86274,477.931825 665.730051,478.859934 L667.255971,485.820752 C667.455004,486.616274 668.118448,487.146622 668.980925,487.146622 L673.16062,487.146622 L679.463334,488.074732 L701.688697,488.074732 L737.580998,486.947742 L776.52514,487.146622 L776.52514,484.892643 L779.709669,484.892643 L858.128709,483.765653 L899.925658,483.765653 L900.124691,475.611552 C900.721791,473.755333 902.446744,472.495757 904.370731,472.36317 C906.958161,472.296876 909.081181,474.285682 909.213869,476.871128 C908.882148,478.130705 908.550426,479.323988 908.15236,480.583565 C906.825472,484.760056 903.839976,488.273612 899.925658,490.262417 C898.598771,490.925352 897.139195,491.323114 895.679619,491.389407 L865.492933,497.819877 L853.949014,500.471618 C841.741651,503.255945 829.932354,507.49873 818.720156,513.133678 C809.830011,517.575343 800.939866,522.149596 792.049721,526.790141 C782.695166,531.629567 773.34061,536.336407 763.787022,540.910659 C746.869209,548.998467 727.43031,549.793989 709.915398,543.164638 C697.575346,539.518495 686.69487,532.159916 678.600858,522.149596 C670.108779,512.868504 664.668541,501.134553 663.142621,488.671373" id="Fill-16" fill="#37474F"></path>
            <path d="M914.720452,250.81026 L915.980995,285.282885 C916.047339,286.940223 917.440571,288.266093 919.165524,288.1998 C920.757789,288.133506 922.018332,286.87393 922.084676,285.282885 L921.023166,274.543337 L1035.79892,261.085754 L1050.52737,259.428417 L1123.04176,251.340608 L1145.59884,248.3574 C1147.12476,248.15852 1148.71703,248.556281 1149.91122,249.48439 L1150.64101,258.16884 L1150.64101,259.49471 L1161.9859,258.235133 L1157.67352,221.375942 C1157.47448,219.586017 1155.88222,218.326441 1154.09092,218.525321 C1153.95823,218.525321 1153.82554,218.591615 1153.69285,218.591615 L1028.70007,233.839122 L950.480064,242.855039 L919.09918,246.103421 C916.777127,246.434889 914.919485,248.3574 914.720452,250.81026" id="Fill-18" fill="#37474F"></path>
            <path d="M632.027114,121.140155 L629.904094,145.072112 C629.107962,153.623975 627.515697,162.109544 625.060955,170.32994 C620.748572,184.781925 614.578546,198.637268 606.683566,211.564503 C604.825924,214.614004 602.304838,217.133157 599.319342,219.055669 C597.660733,220.116365 595.604057,220.248952 593.746415,219.519724 C589.434031,217.729799 586.713912,213.553308 586.846601,208.912762 C586.912946,205.995848 588.0408,203.21152 589.898442,200.957541 C592.684905,197.709159 595.006958,194.063016 596.8646,190.217992 C599.120309,185.511153 600.977951,180.53914 602.238494,175.43454 C604.096136,168.009667 604.825924,160.385913 604.427858,152.762159 C603.830759,141.691143 601.176984,130.752714 596.665567,120.609807 C592.286839,110.930955 588.571555,100.920635 585.45337,90.7777278 C584.85627,88.722629 582.799595,87.3967588 580.610231,87.7945199 L533.903798,88.2585745 L499.139351,88.590042 L460.991341,89.3192706 L419.194392,90.1810863 L375.738833,90.3136733 L299.509158,91.4406629 L218.237311,92.5676526 L149.902615,93.6946423 C144.993132,93.7609358 140.349027,95.6834476 136.832775,99.0644166 L120.246684,126.973984 L81.9659856,186.372969 C78.582423,191.610156 77.3882244,197.974333 78.7151117,204.073336 C80.1746878,210.967861 82.2313631,217.729799 84.8851377,224.292856 C85.6149257,226.082781 86.5437468,227.740119 87.671601,229.26487 C90.7897861,233.441361 94.3723818,237.220091 98.4193881,240.534766 C103.46156,244.711257 109.034486,248.15852 115.005479,250.876554 C119.052485,252.732772 123.298525,253.992349 127.610909,254.787871 C134.046312,255.914861 140.614404,256.445209 147.116152,256.378915 L197.007114,257.969959 L302.693687,258.102546 L367.313098,258.898068 C369.038052,258.898068 370.497628,260.290232 370.563972,262.013863 C370.630317,263.803788 369.237085,265.394832 367.445787,265.461126 L339.647498,267.781399 L305.745528,268.245453 L253.996923,268.576921 L208.086623,269.173562 L165.427196,269.770204 L145.192165,270.101672 C129.070485,270.366846 113.081493,267.251051 98.2866993,260.953167 C80.1083434,253.196827 66.0433381,238.1482 59.6742791,219.45343 C52.1110215,197.245104 51.6466109,173.246854 58.4800805,150.839648 L76.2603702,107.417399 L105.518235,34.2293641 C107.1105,30.2517535 110.75944,27.5337196 115.005479,27.202252 L232.766727,23.688696 L314.635673,16.2638229 L463.910493,5.06021978 L559.31369,4.06581714 L601.707739,5.65686137 C610.531539,5.98832892 619.288996,6.98273156 627.913763,8.64006931 C633.221312,9.63447195 637.13563,14.1424306 637.533696,19.5122049 C637.799073,23.2246414 637.865418,27.0033715 637.865418,30.715808 L632.027114,121.140155 Z" id="Fill-20" fill="#37474F"></path>
            <path d="M685.633427,588.443105 L686.694936,585.791365 C688.154512,583.669973 690.078499,581.946341 692.400552,580.819352 L719.933463,567.428063 C721.194006,566.566247 722.653582,566.035899 724.179503,566.035899 L727.430376,565.969605 C736.121488,566.566247 744.878944,565.969605 753.437367,564.113387 L798.551535,546.280433 L818.720222,536.336407 C849.105941,521.354073 881.61468,511.343753 915.184929,506.570621 L991.281915,490.461298 C1010.91985,486.284807 1030.75681,483.566773 1050.79281,482.240903 L1111.23253,476.672248 L1157.73993,473.423866 C1185.27284,471.501354 1212.87209,471.0373 1240.405,472.097996 C1242.46168,472.031702 1244.51836,472.230583 1246.50869,472.827224 L1210.81542,479.589162 C1206.37035,480.450978 1201.85893,481.2465 1197.41386,481.975729 C1185.40553,483.964534 1173.26451,484.561176 1161.12349,483.765653 C1149.44688,482.970131 1137.83662,482.506077 1126.16001,482.506077 C1111.56425,482.439783 1096.96849,483.831947 1082.63811,486.748861 C1081.31122,487.014035 1079.98433,487.610677 1078.85648,488.406199 L1066.38374,493.974854 L1041.10653,502.659304 L1006.74015,511.741515 L933.29694,532.491383 L829.136288,561.793114 L721.592072,591.890368 C714.095159,594.01176 706.20018,594.343228 698.570578,592.951064 C694.059161,592.022955 689.680433,590.498204 685.633427,588.443105" id="Fill-22" fill="#37474F"></path>
            <path d="M259.768883,321.744316 L231.506184,288.266093 C231.373495,288.133506 231.240806,288.067213 231.041773,288.067213 L221.222807,288.266093 C220.891085,288.266093 220.692052,288.531267 220.692052,288.862735 C220.692052,288.929028 220.692052,289.061615 220.758397,289.127909 L270.782048,373.718427 L276.554007,386.247901 L280.800047,388.899641 L292.476655,386.380488 C296.324628,382.535464 300.106257,378.49156 303.755197,374.381362 L259.768883,321.744316 Z" id="Fill-24" fill="#37474F"></path>
            <path d="M129.136895,425.427365 L123.696657,438.023132 L119.649651,453.469519 L118.256419,467.921505 L119.649651,482.37349 L122.966869,492.317516 L127.942697,500.869379 L132.188736,505.841392 L137.429941,510.813405 L142.206735,513.597733 L153.352588,418.864307 C153.750655,415.947393 156.470774,413.892294 159.389926,414.356349 L184.335407,417.008089 L188.316069,410.445032 L192.827485,402.887572 C190.969843,406.003367 187.652625,407.925878 184.003685,407.992172 L156.27174,406.003367 C155.80733,406.003367 155.409264,405.937073 154.944853,405.804486 C149.504615,404.677496 146.054708,399.374016 147.182562,393.937948 L137.429941,410.710206 L129.136895,425.427365 Z" id="Fill-26" fill="#37474F"></path>
            <path d="M562.166564,201.68677 L558.384935,199.23391 C556.659982,198.10692 554.669651,197.443985 552.612975,197.311398 C544.585307,196.78105 536.557639,196.714756 528.529971,197.112517 C524.350276,197.311398 520.170581,197.841746 515.990886,198.637268 L482.022571,198.637268 L482.022571,207.189131 L397.433506,212.492612 L397.433506,203.145227 C397.433506,202.018237 396.57103,201.156422 395.443175,201.156422 L392.457679,201.156422 C391.329825,201.156422 390.467348,202.018237 390.467348,203.145227 L390.401004,247.429291 C390.865414,249.683271 393.054778,251.075434 395.310487,250.61138 L395.376831,250.61138 L445.135104,230.855914 L486.600332,214.746591 L486.799366,214.746591 C487.794531,214.746591 488.723352,214.415123 489.519484,213.884775 L492.305948,212.824079 C500.99706,209.44311 510.086238,207.388011 519.374449,206.725076 C531.913534,205.796967 544.452618,206.459902 556.79267,208.713882 C559.512789,209.177936 562.033875,207.454305 562.56463,204.736271 C562.763663,203.609281 562.630974,202.614879 562.166564,201.68677" id="Fill-28" fill="#37474F"></path>
            <path d="M503.451801,582.078928 L535.297096,558.080678 L569.530788,577.76985 L599.65113,597.260142 C602.835659,599.315241 604.759646,602.828797 604.82599,606.607527 C604.892335,609.060387 604.36158,611.513247 603.366414,613.767226 L596.599289,621.987621 L591.756151,619.070707 L590.429263,620.860632 C585.05537,627.887744 577.492112,632.92605 568.933689,635.18003 C566.279914,635.909258 563.427107,635.909258 560.773332,635.18003 L520.76768,604.287254 L503.451801,582.078928 Z" id="Fill-30" fill="#37474F"></path>
            <path d="M260.034327,433.979228 L228.255376,414.091175 L234.226369,405.274138 L226.530423,400.036951 L248.556752,366.956489 L253.466235,372.06109 L264.346711,391.617675 L277.748272,412.831598 L264.280366,433.714054 C264.147677,433.912934 263.948644,434.111815 263.749611,434.310695 C262.688101,435.238804 261.029492,435.106217 260.034327,433.979228" id="Fill-32" fill="#37474F"></path>
            <path d="M598.722309,493.974854 L627.184041,493.444506 L634.548266,493.444506 C634.879988,495.101844 635.211709,496.759181 635.543431,498.350226 C637.069352,505.178457 638.661616,511.940395 640.253881,518.768627 C645.163364,539.187028 654.849641,558.080678 668.582925,573.924827 L628.577273,593.547706 C624.132201,595.735391 618.824651,595.470217 614.644956,592.752183 L543.72283,550.854685 C543.590142,550.788392 543.457453,550.655805 543.324764,550.589511 C542.064221,549.528815 541.865188,547.672597 542.926698,546.41302 L544.187241,544.888269 C555.333094,531.695861 563.62614,516.38206 568.469279,499.808683 C569.464444,496.427714 572.582629,494.173734 576.09888,494.306321 L598.788653,493.90856 L598.722309,493.974854 Z" id="Fill-34" fill="#37474F"></path>
            <path d="M557.323359,482.240836 C556.062816,474.086735 553.873452,466.131514 550.9543,458.50776 C546.973638,448.099679 542.462221,437.956772 537.552738,427.946452 L512.142847,396.722209 L507.432397,393.274946 L480.828306,376.900449 L480.363896,376.767862 C468.289221,370.469979 452.432918,367.486771 437.969847,365.299085 L398.693983,359.001202 L374.677323,357.211277 C371.426449,356.946103 368.175575,357.807919 365.389112,359.664137 L342.035895,373.850948 L333.74285,380.546593 L339.912876,387.573705 L343.62816,390.954674 C346.879034,393.871588 350.992385,395.727806 355.371113,396.059274 L359.351775,396.854796 L363.863191,398.048079 L369.303429,398.976188 L374.279257,400.633526 L378.326263,401.826809 L386.48662,402.357157 L418.995358,401.694222 C432.131543,399.373949 445.599449,401.097581 457.740467,406.599942 L463.645116,408.787628 L463.578772,408.853921 L464.972003,409.78203 C493.898146,428.609387 512.872635,459.303282 516.720608,493.577027 L517.185018,499.278268 L470.54493,566.16842 L470.810307,571.140433 L477.245711,569.483095 L483.681114,567.560583 L490.315551,565.439191 L496.286543,562.721157 L496.618265,562.58857 L503.650768,559.93683 C513.138012,556.35698 521.895468,551.119793 529.591414,544.490442 C535.29703,539.584722 540.272857,533.817187 544.253519,527.45301 C548.499558,520.691072 552.48022,513.796547 556.261849,506.769435 C557.854114,503.719934 558.650246,500.338965 558.583902,496.891702 C558.517557,492.052276 558.053147,487.146556 557.323359,482.240836" id="Fill-36" fill="#37474F"></path>
            <path d="M320.540321,391.286207 L318.151924,393.208719 L295.395807,418.864307 L298.314959,436.432087 L276.487663,465.534938 C275.359809,467.059689 275.22712,469.048494 276.155941,470.705832 L286.704695,480.649858 C295.727529,475.744139 310.986733,465.468645 319.346123,459.502229 C323.592162,456.253847 327.771857,452.872878 331.818863,449.359322 C339.249432,441.138927 346.082902,432.388183 352.186583,423.107092 L320.540321,391.286207 Z" id="Fill-38" fill="#37474F"></path>
            <path d="M428.150881,591.824074 C372.35527,591.824074 326.577658,548.799586 322.265275,494.107441 L280.003914,498.482813 C286.505662,574.521468 350.328941,634.25192 428.084536,634.25192 C442.812985,634.25192 457.010679,632.130528 470.478585,628.086624 L459.465421,587.117235 C449.580111,590.166737 439.097701,591.824074 428.150881,591.824074" id="Fill-40" fill="#26C6DA"></path>
            <path d="M379.653216,488.60508 L339.647565,492.317516 C343.031127,538.192625 381.37817,574.388881 428.217291,574.388881 C437.571847,574.388881 446.594681,572.930424 455.086759,570.278684 L444.936071,534.944243 L379.653216,488.60508 Z" id="Fill-42" fill="#26C6DA"></path>
            <path d="M540.67099,410.378672 L555.797505,388.302933 L534.500964,373.51948 L537.884526,368.282293 L535.429785,364.702444 L538.680659,335.864767 L528.861693,328.903948 L501.395126,343.157053 L498.608662,341.300835 L494.428967,347.333544 L473.066082,332.218624 L458.204944,354.42695 L540.67099,410.378672 Z" id="Fill-44" fill="#607D8B"></path>
            <path d="M498.409629,455.657139 L427.089437,406.268474 L382.368028,468.687128 L350.859762,446.707515 L340.178319,459.767337 L341.836929,478.5284 L364.394013,476.871062 L367.24682,472.561984 L420.521345,511.078513 L457.607845,537.861091 L455.219448,540.976886 L457.873223,555.959219 L471.871883,554.964817 L489.718518,530.303631 L460.925063,510.349285 L498.409629,455.657139 Z" id="Fill-46" fill="#607D8B"></path>
            <path d="M248.025931,504.515522 L251.409493,504.714403 L254.992089,504.979577 L258.707373,505.244751 L262.555346,505.576218 L266.40332,505.907686 L270.383981,506.305447 L274.298299,506.769501 L278.212616,507.233556 L282.126934,507.763904 L285.974907,508.294252 L289.82288,508.890894 L293.604509,509.553829 L297.319794,510.216764 L301.035078,510.945992 L304.750362,511.741515 L308.399302,512.60333 L312.048242,513.531439 L315.697183,514.525842 L319.279778,515.586538 L322.79603,516.647234 L326.312281,517.840517 L329.828532,519.033801 L333.278439,520.293377 L336.728346,521.619247 L340.111909,522.945118 L343.429127,524.403575 L346.680001,525.795739 L349.930875,527.254196 L353.04906,528.778947 L356.034556,530.237404 L358.953708,531.695861 L361.673827,533.154318 L364.327602,534.546482 L366.848688,535.938646 L369.237085,537.330809 L371.559138,538.656679 L373.748502,539.98255 L375.871521,541.30842 L377.928197,542.567997 L379.984872,543.893867 L381.908859,545.153443 L383.832845,546.41302 L385.756832,547.672597 L387.614474,548.932173 L389.53846,550.19175 L391.396103,551.451327 L393.253745,552.777197 L395.111387,554.169361 L396.969029,555.561524 L398.893016,557.019982 L400.750658,558.478439 L402.674645,560.00319 L404.598631,561.52794 L406.522618,563.052691 L408.446604,564.643735 L410.304247,566.23478 L412.228233,567.892117 L414.15222,569.483161 L416.076206,571.206793 L417.933849,572.86413 L419.857835,574.654055 L421.781822,576.510274 L423.705808,578.366492 L425.629795,580.355297 L427.553781,582.410396 L429.477768,584.598082 L431.468099,586.852061 L433.392086,589.172334 L435.382417,591.5589 L437.372747,594.078054 L439.363078,596.6635 L441.353409,599.315241 L443.34374,602.033275 L445.400416,604.883896 L447.390747,607.734517 L449.381077,610.585138 L451.305064,613.502052 L453.295395,616.48526 L455.153037,619.402174 L457.010679,622.319089 L458.801977,625.16971 L460.526931,628.020331 L462.18554,630.804658 L463.844149,633.588985 L465.436414,636.373313 L466.962334,639.091347 L468.42191,641.743087 L469.881486,644.394827 L471.274718,647.046568 L472.601605,649.632015 L473.928492,652.217462 L475.122691,654.670321 L476.31689,657.123181 L477.444744,659.509748 L478.439909,661.830021 L479.435075,664.017706 L480.297551,666.139099 L481.027339,668.127904 L481.757127,669.851535 L482.354227,671.376286 L482.884982,672.503276 L483.283048,673.232504 L483.61477,673.563972 L483.880147,673.365091 L484.012836,672.569569 L484.07918,671.309992 L484.07918,669.586361 L484.012836,667.464969 L483.880147,665.078403 L483.747458,662.360369 L483.61477,659.509748 L483.482081,656.592833 L483.349392,653.543332 L483.283048,650.49383 L483.150359,647.378035 L483.150359,644.26224 L483.084015,641.080152 L483.150359,637.964357 L483.216703,634.848562 L483.283048,631.732767 L483.482081,628.616972 L483.681114,625.567471 L483.880147,622.517969 L484.211869,619.534761 L484.543591,616.551553 L484.875313,613.634639 L485.273379,610.717725 L485.671445,607.80081 L486.069511,604.950189 L486.533922,602.099568 L486.998332,599.315241 L487.529087,596.46462 L488.059842,593.680293 L488.656941,590.895965 L489.254041,588.045344 L489.983829,585.194723 L490.647272,582.344102 L491.443405,579.427188 L492.305881,576.576567 L493.234703,573.659653 L494.163524,570.742738 L495.225034,567.892117 L496.352888,565.041496 L497.547086,562.190875 L498.807629,559.340255 L500.134517,556.555927 L501.527748,553.837893 L502.987324,551.186153 L504.4469,548.534412 L505.906476,546.015259 L507.432397,543.562399 L508.891973,541.242126 L510.417893,538.988147 L511.877469,536.866755 L513.403389,534.811656 L514.92931,532.822851 L516.45523,530.834045 L518.047495,528.84524 L519.63976,526.922728 L521.364713,525.000216 L523.089667,523.011411 L524.880965,521.022606 L526.738607,518.967507 L528.596249,516.978702 L530.453891,514.989897 L532.245189,513.067385 L534.036487,511.144873 L535.76144,509.222361 L537.420049,507.432436 L538.94597,505.642512 L540.47189,503.91888 L541.931466,502.327836 L543.258354,500.670498 L544.585241,499.145748 L545.845784,497.68729 L547.039982,496.228833 L548.167837,494.902963 L549.229346,493.577093 L550.224512,492.38381 L551.020644,491.323114 L551.684088,490.395004 L552.214843,489.665776 L552.48022,489.069134 L552.48022,488.737667 L552.214843,488.60508 L551.750432,488.671373 L551.020644,488.870254 L550.158168,489.268015 L549.096658,489.665776 L547.968803,490.196124 L546.708261,490.726472 L545.381373,491.190527 L544.054486,491.654581 L542.661254,492.118636 L541.268023,492.450103 L539.742102,492.781571 L538.149837,493.113038 L536.424884,493.311919 L534.567242,493.510799 L532.643255,493.70968 L530.520236,493.775973 L528.330872,493.842267 L526.008819,493.90856 L523.554077,493.842267 L521.099336,493.775973 L518.57825,493.70968 L516.057164,493.577093 L513.536078,493.378212 L511.014992,493.113038 L508.493906,492.847864 L505.972821,492.516397 L503.518079,492.184929 L500.996993,491.720875 L498.542252,491.190527 L496.021166,490.660178 L493.566424,489.997243 L491.045339,489.268015 L488.524253,488.472493 L486.003167,487.610677 L483.482081,486.682568 L480.894651,485.688165 L478.307221,484.561176 L475.71979,483.434186 L473.13236,482.174609 L470.478585,480.915033 L467.824811,479.522869 L465.104692,478.064412 L462.450917,476.605954 L459.797143,475.081204 L457.077024,473.490159 L454.423249,471.899115 L451.835819,470.241777 L449.182044,468.58444 L446.594614,466.860808 L444.073528,465.203471 L441.552442,463.479839 L439.164045,461.756208 L436.775648,460.09887 L434.453595,458.507826 L432.264231,456.916782 L430.141212,455.325738 L428.150881,453.867281 L426.226894,452.408823 L424.369252,450.950366 L422.51161,449.558202 L420.786656,448.166039 L419.128047,446.773875 L417.469438,445.315418 L415.943518,443.923254 L414.351253,442.53109 L412.891677,441.072633 L411.432101,439.614176 L409.972525,438.155719 L408.579293,436.630968 L407.252406,435.039924 L405.925519,433.44888 L404.664976,431.791542 L403.470777,430.134204 L402.210234,428.344279 L401.08238,426.554355 L399.888181,424.698136 L398.760327,422.841918 L397.566129,420.853113 L396.438274,418.864307 L395.31042,416.809209 L394.182566,414.75411 L393.054712,412.632718 L391.993202,410.511325 L390.865348,408.389933 L389.803838,406.268541 L388.742328,404.213442 L387.747163,402.158343 L386.751997,400.169538 L385.823176,398.180732 L384.894355,396.324514 L384.031878,394.402002 L383.169401,392.545784 L382.439613,390.755859 L381.709825,388.965935 L381.046382,387.109716 L380.382938,385.319792 L379.852183,383.59616 L379.321428,381.806235 L378.857018,380.082604 L378.392607,378.358973 L377.994541,376.701635 L377.596475,375.110591 L377.264753,373.58584 L376.866687,372.127383 L376.534965,370.668926 L376.203243,369.343056 L375.937866,368.083479 L375.672488,366.823902 L375.407111,365.696913 L375.141733,364.569923 L374.9427,363.57552 L374.743667,362.581118 L374.544634,361.719302 L374.411945,360.990073 L374.212912,360.526019 L374.146568,360.260845 L374.013879,360.260845 L373.88119,360.592312 L373.814846,361.255247 L373.682157,362.382237 L373.615813,363.840694 L373.549469,365.564326 L373.41678,367.486837 L373.284091,369.60823 L373.217747,371.729622 L373.085058,373.851014 L372.886025,375.972407 L372.686992,377.894918 L372.487959,379.751137 L372.222581,381.541061 L371.957204,383.198399 L371.625482,384.855737 L371.227416,386.513075 L370.763005,388.170412 L370.23225,389.894044 L369.635151,391.683968 L368.971707,393.473893 L368.241919,395.396405 L367.445787,397.252623 L366.58331,399.175135 L365.720834,401.097647 L364.858357,402.953865 L363.929536,404.810083 L363.000715,406.666302 L362.005549,408.456226 L361.010384,410.246151 L360.015218,412.102369 L358.953708,413.892294 L357.892199,415.748512 L356.698,417.671024 L355.503801,419.593536 L354.176914,421.582341 L352.850027,423.703734 L351.390451,425.825126 L349.930875,428.079105 L348.33861,430.333085 L346.613657,432.653357 L344.822359,434.97363 L342.898372,437.360197 L340.908041,439.813056 L338.851366,442.265916 L336.662002,444.718776 L334.472638,447.105343 L332.283274,449.491909 L330.09391,451.745888 L327.904546,453.933574 L325.84787,456.054966 L323.791195,457.977478 L321.800864,459.767403 L319.810533,461.491034 L317.886547,463.082078 L316.028904,464.673123 L314.104918,466.13158 L312.114587,467.590037 L310.124256,469.048494 L308.067581,470.440658 L305.944561,471.899115 L303.821541,473.291279 L301.632177,474.749736 L299.442813,476.1419 L297.187105,477.534064 L294.931396,478.859934 L292.675688,480.185804 L290.41998,481.445381 L288.164271,482.704957 L285.974907,483.89824 L283.851887,485.091524 L281.728868,486.15222 L279.672193,487.212916 L277.681862,488.207319 L275.757875,489.069134 L273.966577,489.93095 L272.241624,490.726472 L270.51667,491.389407 L268.858061,492.118636 L267.265796,492.715277 L265.607187,493.378212 L263.948578,493.974854 L262.223625,494.637789 L260.432327,495.300724 L258.50834,495.963659 L256.584354,496.626594 L254.594023,497.289529 L252.471003,497.952465 L250.347983,498.6154 L248.092275,499.212041 L245.770222,499.808683 L243.448169,500.405324 L240.993428,500.935672 L238.671375,501.399727 L236.349322,501.863782 L234.159958,502.261543 L232.169627,502.659304 L230.444674,502.924478 L228.918753,503.189652 L227.790899,503.388532 L226.928423,503.521119 L226.464012,503.653706 L226.264979,503.72 L226.464012,503.786293 L226.928423,503.786293 L227.724555,503.852587 L228.852409,503.852587 L230.311985,503.852587 L232.036939,503.91888 L234.093614,503.985174 L236.415667,503.985174 L238.936753,504.117761 L241.78956,504.184054 L244.775057,504.316641 L248.025931,504.515522 Z" id="Fill-48" fill-opacity="0.54" fill="#FFFFFF"></path>
            <path d="M248.025931,504.515522 L251.409493,504.714403 L254.992089,504.979577 L258.707373,505.244751 L262.555346,505.576218 L266.40332,505.907686 L270.383981,506.305447 L274.298299,506.769501 L278.212616,507.233556 L282.126934,507.763904 L285.974907,508.294252 L289.82288,508.890894 L293.604509,509.553829 L297.319794,510.216764 L301.035078,510.945992 L304.750362,511.741515 L308.399302,512.60333 L312.048242,513.531439 L315.697183,514.525842 L319.279778,515.586538 L322.79603,516.647234 L326.312281,517.840517 L329.828532,519.033801 L333.278439,520.293377 L336.728346,521.619247 L340.111909,522.945118 L343.429127,524.403575 L346.680001,525.795739 L349.930875,527.254196 L353.04906,528.778947 L356.034556,530.237404 L358.953708,531.695861 L361.673827,533.154318 L364.327602,534.546482 L366.848688,535.938646 L369.237085,537.330809 L371.559138,538.656679 L373.748502,539.98255 L375.871521,541.30842 L377.928197,542.567997 L379.984872,543.893867 L381.908859,545.153443 L383.832845,546.41302 L385.756832,547.672597 L387.614474,548.932173 L389.53846,550.19175 L391.396103,551.451327 L393.253745,552.777197 L395.111387,554.169361 L396.969029,555.561524 L398.893016,557.019982 L400.750658,558.478439 L402.674645,560.00319 L404.598631,561.52794 L406.522618,563.052691 L408.446604,564.643735 L410.304247,566.23478 L412.228233,567.892117 L414.15222,569.483161 L416.076206,571.206793 L417.933849,572.86413 L419.857835,574.654055 L421.781822,576.510274 L423.705808,578.366492 L425.629795,580.355297 L427.553781,582.410396 L429.477768,584.598082 L431.468099,586.852061 L433.392086,589.172334 L435.382417,591.5589 L437.372747,594.078054 L439.363078,596.6635 L441.353409,599.315241 L443.34374,602.033275 L445.400416,604.883896 L447.390747,607.734517 L449.381077,610.585138 L451.305064,613.502052 L453.295395,616.48526 L455.153037,619.402174 L457.010679,622.319089 L458.801977,625.16971 L460.526931,628.020331 L462.18554,630.804658 L463.844149,633.588985 L465.436414,636.373313 L466.962334,639.091347 L468.42191,641.743087 L469.881486,644.394827 L471.274718,647.046568 L472.601605,649.632015 L473.928492,652.217462 L475.122691,654.670321 L476.31689,657.123181 L477.444744,659.509748 L478.439909,661.830021 L479.435075,664.017706 L480.297551,666.139099 L481.027339,668.127904 L481.757127,669.851535 L482.354227,671.376286 L482.884982,672.503276 L483.283048,673.232504 L483.61477,673.563972 L483.880147,673.365091 L484.012836,672.569569 L484.07918,671.309992 L484.07918,669.586361 L484.012836,667.464969 L483.880147,665.078403 L483.747458,662.360369 L483.61477,659.509748 L483.482081,656.592833 L483.349392,653.543332 L483.283048,650.49383 L483.150359,647.378035 L483.150359,644.26224 L483.084015,641.080152 L483.150359,637.964357 L483.216703,634.848562 L483.283048,631.732767 L483.482081,628.616972 L483.681114,625.567471 L483.880147,622.517969 L484.211869,619.534761 L484.543591,616.551553 L484.875313,613.634639 L485.273379,610.717725 L485.671445,607.80081 L486.069511,604.950189 L486.533922,602.099568 L486.998332,599.315241 L487.529087,596.46462 L488.059842,593.680293 L488.656941,590.895965 L489.254041,588.045344 L489.983829,585.194723 L490.647272,582.344102 L491.443405,579.427188 L492.305881,576.576567 L493.234703,573.659653 L494.163524,570.742738 L495.225034,567.892117 L496.352888,565.041496 L497.547086,562.190875 L498.807629,559.340255 L500.134517,556.555927 L501.527748,553.837893 L502.987324,551.186153 L504.4469,548.534412 L505.906476,546.015259 L507.432397,543.562399 L508.891973,541.242126 L510.417893,538.988147 L511.877469,536.866755 L513.403389,534.811656 L514.92931,532.822851 L516.45523,530.834045 L518.047495,528.84524 L519.63976,526.922728 L521.364713,525.000216 L523.089667,523.011411 L524.880965,521.022606 L526.738607,518.967507 L528.596249,516.978702 L530.453891,514.989897 L532.245189,513.067385 L534.036487,511.144873 L535.76144,509.222361 L537.420049,507.432436 L538.94597,505.642512 L540.47189,503.91888 L541.931466,502.327836 L543.258354,500.670498 L544.585241,499.145748 L545.845784,497.68729 L547.039982,496.228833 L548.167837,494.902963 L549.229346,493.577093 L550.224512,492.38381 L551.020644,491.323114 L551.684088,490.395004 L552.214843,489.665776 L552.48022,489.069134 L552.48022,488.737667 L552.214843,488.60508 L551.750432,488.671373 L551.020644,488.870254 L550.158168,489.268015 L549.096658,489.665776 L547.968803,490.196124 L546.708261,490.726472 L545.381373,491.190527 L544.054486,491.654581 L542.661254,492.118636 L541.268023,492.450103 L539.742102,492.781571 L538.149837,493.113038 L536.424884,493.311919 L534.567242,493.510799 L532.643255,493.70968 L530.520236,493.775973 L528.330872,493.842267 L526.008819,493.90856 L523.554077,493.842267 L521.099336,493.775973 L518.57825,493.70968 L516.057164,493.577093 L513.536078,493.378212 L511.014992,493.113038 L508.493906,492.847864 L505.972821,492.516397 L503.518079,492.184929 L500.996993,491.720875 L498.542252,491.190527 L496.021166,490.660178 L493.566424,489.997243 L491.045339,489.268015 L488.524253,488.472493 L486.003167,487.610677 L483.482081,486.682568 L480.894651,485.688165 L478.307221,484.561176 L475.71979,483.434186 L473.13236,482.174609 L470.478585,480.915033 L467.824811,479.522869 L465.104692,478.064412 L462.450917,476.605954 L459.797143,475.081204 L457.077024,473.490159 L454.423249,471.899115 L451.835819,470.241777 L449.182044,468.58444 L446.594614,466.860808 L444.073528,465.203471 L441.552442,463.479839 L439.164045,461.756208 L436.775648,460.09887 L434.453595,458.507826 L432.264231,456.916782 L430.141212,455.325738 L428.150881,453.867281 L426.226894,452.408823 L424.369252,450.950366 L422.51161,449.558202 L420.786656,448.166039 L419.128047,446.773875 L417.469438,445.315418 L415.943518,443.923254 L414.351253,442.53109 L412.891677,441.072633 L411.432101,439.614176 L409.972525,438.155719 L408.579293,436.630968 L407.252406,435.039924 L405.925519,433.44888 L404.664976,431.791542 L403.470777,430.134204 L402.210234,428.344279 L401.08238,426.554355 L399.888181,424.698136 L398.760327,422.841918 L397.566129,420.853113 L396.438274,418.864307 L395.31042,416.809209 L394.182566,414.75411 L393.054712,412.632718 L391.993202,410.511325 L390.865348,408.389933 L389.803838,406.268541 L388.742328,404.213442 L387.747163,402.158343 L386.751997,400.169538 L385.823176,398.180732 L384.894355,396.324514 L384.031878,394.402002 L383.169401,392.545784 L382.439613,390.755859 L381.709825,388.965935 L381.046382,387.109716 L380.382938,385.319792 L379.852183,383.59616 L379.321428,381.806235 L378.857018,380.082604 L378.392607,378.358973 L377.994541,376.701635 L377.596475,375.110591 L377.264753,373.58584 L376.866687,372.127383 L376.534965,370.668926 L376.203243,369.343056 L375.937866,368.083479 L375.672488,366.823902 L375.407111,365.696913 L375.141733,364.569923 L374.9427,363.57552 L374.743667,362.581118 L374.544634,361.719302 L374.411945,360.990073 L374.212912,360.526019 L374.146568,360.260845 L374.013879,360.260845 L373.88119,360.592312 L373.814846,361.255247 L373.682157,362.382237 L373.615813,363.840694 L373.549469,365.564326 L373.41678,367.486837 L373.284091,369.60823 L373.217747,371.729622 L373.085058,373.851014 L372.886025,375.972407 L372.686992,377.894918 L372.487959,379.751137 L372.222581,381.541061 L371.957204,383.198399 L371.625482,384.855737 L371.227416,386.513075 L370.763005,388.170412 L370.23225,389.894044 L369.635151,391.683968 L368.971707,393.473893 L368.241919,395.396405 L367.445787,397.252623 L366.58331,399.175135 L365.720834,401.097647 L364.858357,402.953865 L363.929536,404.810083 L363.000715,406.666302 L362.005549,408.456226 L361.010384,410.246151 L360.015218,412.102369 L358.953708,413.892294 L357.892199,415.748512 L356.698,417.671024 L355.503801,419.593536 L354.176914,421.582341 L352.850027,423.703734 L351.390451,425.825126 L349.930875,428.079105 L348.33861,430.333085 L346.613657,432.653357 L344.822359,434.97363 L342.898372,437.360197 L340.908041,439.813056 L338.851366,442.265916 L336.662002,444.718776 L334.472638,447.105343 L332.283274,449.491909 L330.09391,451.745888 L327.904546,453.933574 L325.84787,456.054966 L323.791195,457.977478 L321.800864,459.767403 L319.810533,461.491034 L317.886547,463.082078 L316.028904,464.673123 L314.104918,466.13158 L312.114587,467.590037 L310.124256,469.048494 L308.067581,470.440658 L305.944561,471.899115 L303.821541,473.291279 L301.632177,474.749736 L299.442813,476.1419 L297.187105,477.534064 L294.931396,478.859934 L292.675688,480.185804 L290.41998,481.445381 L288.164271,482.704957 L285.974907,483.89824 L283.851887,485.091524 L281.728868,486.15222 L279.672193,487.212916 L277.681862,488.207319 L275.757875,489.069134 L273.966577,489.93095 L272.241624,490.726472 L270.51667,491.389407 L268.858061,492.118636 L267.265796,492.715277 L265.607187,493.378212 L263.948578,493.974854 L262.223625,494.637789 L260.432327,495.300724 L258.50834,495.963659 L256.584354,496.626594 L254.594023,497.289529 L252.471003,497.952465 L250.347983,498.6154 L248.092275,499.212041 L245.770222,499.808683 L243.448169,500.405324 L240.993428,500.935672 L238.671375,501.399727 L236.349322,501.863782 L234.159958,502.261543 L232.169627,502.659304 L230.444674,502.924478 L228.918753,503.189652 L227.790899,503.388532 L226.928423,503.521119 L226.464012,503.653706 L226.264979,503.72 L226.464012,503.786293 L226.928423,503.786293 L227.724555,503.852587 L228.852409,503.852587 L230.311985,503.852587 L232.036939,503.91888 L234.093614,503.985174 L236.415667,503.985174 L238.936753,504.117761 L241.78956,504.184054 L244.775057,504.316641 L248.025931,504.515522 L248.025931,504.515522 Z" id="Stroke-50" stroke="#FFFFFF" stroke-width="0.832236737"></path>
            <path d="M692.798552,286.409809 C706.09927,286.409809 716.881556,297.18383 716.881556,310.474353 C716.881556,323.764876 706.09927,334.538897 692.798552,334.538897 C679.497833,334.538897 668.715547,323.764876 668.715547,310.474353 C668.715547,297.18383 679.497833,286.409809 692.798552,286.409809" id="Fill-52" fill="#FF5252"></path>
            <path d="M971.444884,333.478201 C984.745602,333.478201 995.527888,344.252222 995.527888,357.542745 C995.527888,370.833267 984.745602,381.607289 971.444884,381.607289 C958.144165,381.607289 947.361879,370.833267 947.361879,357.542745 C947.361879,344.252222 958.144165,333.478201 971.444884,333.478201" id="Fill-54" fill="#FF5252"></path>
            <path d="M737.713753,116.433316 C751.014471,116.433316 761.796757,127.207337 761.796757,140.49786 C761.796757,153.788383 751.014471,164.562404 737.713753,164.562404 C724.413035,164.562404 713.630749,153.788383 713.630749,140.49786 C713.630749,127.207337 724.413035,116.433316 737.713753,116.433316" id="Fill-56" fill="#FF5252"></path>
            <path d="M1094.64644,131.349356 C1107.94715,131.349356 1118.72944,142.123377 1118.72944,155.4139 C1118.72944,168.704423 1107.94715,179.478444 1094.64644,179.478444 C1081.34572,179.478444 1070.56343,168.704423 1070.56343,155.4139 C1070.56343,142.123377 1081.34572,131.349356 1094.64644,131.349356" id="Fill-58" fill="#FF5252"></path>
            <path d="M1066.11836,317.501465 L1008.92952,317.501465 C1007.80166,317.501465 1006.93919,316.639649 1006.93919,315.512659 L1006.93919,271.89153 C1006.93919,270.76454 1007.80166,269.902725 1008.92952,269.902725 L1066.11836,269.902725 C1067.24621,269.902725 1068.10869,270.76454 1068.10869,271.89153 L1068.10869,315.512659 C1068.10869,316.639649 1067.17987,317.501465 1066.11836,317.501465" id="Fill-62" fill="#26C6DA"></path>
            <path d="M888.315461,466.993329 L785.282662,466.993329 C784.154808,466.993329 783.292332,466.131514 783.292332,465.004524 L783.292332,385.319725 C783.292332,384.192736 784.154808,383.33092 785.282662,383.33092 L888.315461,383.33092 C889.443315,383.33092 890.305792,384.192736 890.305792,385.319725 L890.305792,465.004524 C890.305792,466.06522 889.443315,466.993329 888.315461,466.993329" id="Fill-64" fill="#26C6DA"></path>
            <path d="M1006.54105,155.61278 L949.020488,155.61278 C947.892634,155.61278 947.030157,154.750965 947.030157,153.623975 L947.030157,119.283937 C947.030157,118.156947 947.892634,117.295132 949.020488,117.295132 L1006.54105,117.295132 C1007.66891,117.295132 1008.53138,118.156947 1008.53138,119.283937 L1008.53138,153.623975 C1008.53138,154.750965 1007.66891,155.61278 1006.54105,155.61278" id="Fill-66" fill="#26C6DA"></path>
            <path d="M454.622083,326.053195 L463.313195,326.053195 L463.313195,316.70581 L454.622083,316.70581 L454.622083,326.053195 Z" id="Fill-68" fill="#2A8EA2"></path>
            <path d="M569.066112,396.655783 L577.757224,396.655783 L577.757224,387.308398 L569.066112,387.308398 L569.066112,396.655783 Z" id="Fill-70" fill="#2A8EA2"></path>
            <path d="M840.481174,334.340083 L840.481174,334.340083 C840.083108,338.185106 842.803227,341.632369 846.584855,342.162717 C846.186789,346.00774 848.906908,349.455003 852.688537,349.985351 C850.167451,349.322416 847.513677,349.852764 845.457001,351.443808 C843.400326,353.034852 842.206127,355.487712 842.272472,358.139453 C839.751386,357.476517 837.097611,358.006866 835.040936,359.59791 C832.984261,361.188954 831.790062,363.641814 831.856407,366.293554 C832.254473,362.448531 829.534354,359.001268 825.752725,358.47092 C826.150791,354.625897 823.430672,351.178634 819.649043,350.648286 C822.170129,351.311221 824.823904,350.780873 826.880579,349.189829 C828.937254,347.598784 830.131453,345.145925 830.065109,342.494184 C832.586195,343.157119 835.239969,342.626771 837.296644,341.035727 C839.35332,339.444683 840.547518,336.991823 840.481174,334.340083" id="Fill-76" fill="#7CB342"></path>
            <path d="M752.044069,186.571783 L752.044069,186.571783 C748.196096,187.035838 745.475977,190.416807 745.741355,194.195537 C741.959726,194.659591 739.173263,198.04056 739.43864,201.81929 C739.571329,199.233843 738.443475,196.71469 736.453144,195.057352 C734.462813,193.400015 731.742694,192.803373 729.221608,193.400015 C729.354297,190.814568 728.226442,188.295414 726.236112,186.638077 C724.245781,184.980739 721.525662,184.384097 719.004576,184.980739 C722.786205,184.516684 725.572668,181.135715 725.30729,177.356985 C729.088919,176.892931 731.875383,173.511962 731.610005,169.733232 C731.477316,172.318678 732.605171,174.837832 734.595501,176.49517 C736.585832,178.152507 739.305951,178.749149 741.827037,178.152507 C741.694348,180.737954 742.822203,183.257108 744.812534,184.914445 C746.869209,186.571783 749.522984,187.168425 752.044069,186.571783" id="Fill-77" fill="#7CB342"></path>
            <path d="M952.470395,202.614812 L952.470395,202.614812 C951.740607,206.393542 954.06266,210.039686 957.777944,210.967795 C957.048156,214.746525 959.370209,218.392668 963.085494,219.320777 C960.630752,218.392668 957.910633,218.657842 955.721269,220.050005 C953.531905,221.442169 952.072329,223.762442 951.873296,226.414182 C949.418554,225.486073 946.698436,225.751247 944.509071,227.143411 C942.319707,228.535575 940.860131,230.855848 940.661098,233.507588 C941.390886,229.728858 939.068834,226.082715 935.353549,225.154606 C936.083337,221.375876 933.761284,217.729733 930.046,216.801624 C932.500741,217.729733 935.22086,217.464559 937.410224,216.072395 C939.599588,214.680231 941.059165,212.359958 941.258198,209.708218 C943.712939,210.636327 946.433058,210.371153 948.622422,208.978989 C950.811786,207.520532 952.271362,205.200259 952.470395,202.614812" id="Fill-78" fill="#7CB342"></path>
            <path d="M493.367391,589.371214 L500.79796,582.012635 C501.594093,581.217113 502.854635,581.283406 503.584423,582.012635 L552.082154,631.136126 C552.878286,631.931648 552.811942,633.191224 552.082154,633.920453 L544.651585,641.279033 C543.855453,642.074555 542.59491,642.008261 541.865122,641.279033 L493.367391,592.155542 C492.571259,591.36002 492.571259,590.100443 493.367391,589.371214" id="Fill-79" fill="#B0BEC5"></path>
            <path d="M592.087872,597.591543 L602.835659,608.728853 C603.631792,609.524375 603.565447,610.783952 602.769315,611.51318 L571.454775,641.809314 C570.658643,642.604836 569.3981,642.538543 568.668312,641.743021 L557.920525,630.605711 C557.124392,629.810189 557.190737,628.550612 557.986869,627.821384 L589.301409,597.52525 C590.031197,596.796021 591.29174,596.796021 592.087872,597.591543" id="Fill-80" fill="#B0BEC5"></path>
            <path d="M752.707513,458.242652 L716.9479,458.242652 C715.820046,458.242652 714.95757,457.380837 714.95757,456.253847 L714.95757,420.521645 C714.95757,419.394655 715.820046,418.53284 716.9479,418.53284 L752.707513,418.53284 C753.835367,418.53284 754.697844,419.394655 754.697844,420.521645 L754.697844,456.253847 C754.697844,457.380837 753.835367,458.242652 752.707513,458.242652" id="Fill-81" fill="#5C6BC0"></path>
            <path d="M734.661647,324.329564 L774.401921,324.329564 L774.401921,284.619751 L734.661647,284.619751 L734.661647,324.329564 Z" id="Fill-82" fill="#5C6BC0"></path>
            <path d="M806.711892,229.728858 L770.95228,229.728858 C769.824425,229.728858 768.961949,228.867042 768.961949,227.740053 L768.961949,192.007851 C768.961949,190.880861 769.824425,190.019046 770.95228,190.019046 L806.711892,190.019046 C807.839746,190.019046 808.702223,190.880861 808.702223,192.007851 L808.702223,227.740053 C808.702223,228.867042 807.773402,229.728858 806.711892,229.728858" id="Fill-83" fill="#5C6BC0"></path>
            <path d="M887.386573,156.607183 L851.626961,156.607183 C850.499107,156.607183 849.63663,155.745367 849.63663,154.618378 L849.63663,118.886176 C849.63663,117.759186 850.499107,116.897371 851.626961,116.897371 L887.386573,116.897371 C888.514428,116.897371 889.376904,117.759186 889.376904,118.886176 L889.376904,154.618378 C889.376904,155.745367 888.514428,156.607183 887.386573,156.607183" id="Fill-84" fill="#5C6BC0"></path>
            <path d="M1066.51636,227.541238 L1030.75675,227.541238 C1029.62889,227.541238 1028.76641,226.679423 1028.76641,225.552433 L1028.76641,189.820231 C1028.76641,188.693242 1029.62889,187.831426 1030.75675,187.831426 L1066.51636,187.831426 C1067.64421,187.831426 1068.50669,188.693242 1068.50669,189.820231 L1068.50669,225.552433 C1068.50669,226.679423 1067.64421,227.541238 1066.51636,227.541238" id="Fill-85" fill="#5C6BC0"></path>
            <path d="M804.853985,309.546111 L824.757294,309.546111 L824.757294,283.691642 L804.853985,283.691642 L804.853985,309.546111 Z" id="Fill-86" fill="#5C6BC0"></path>
            <path d="M843.533015,242.589799 L843.533015,226.679356 C843.533015,225.552367 844.395491,224.690551 845.523346,224.690551 L867.416986,224.690551 C868.54484,224.690551 869.407317,225.552367 869.407317,226.679356 L869.407317,242.589799 C869.407317,243.716788 868.54484,244.578604 867.416986,244.578604 L845.523346,244.578604 C844.395491,244.578604 843.533015,243.716788 843.533015,242.589799" id="Fill-87" fill="#5C6BC0"></path>
            <path d="M609,579.344102 L609,563.43366 C609,562.30667 609.862477,561.444855 610.990331,561.444855 L632.883971,561.444855 C634.011826,561.444855 634.874302,562.30667 634.874302,563.43366 L634.874302,579.344102 C634.874302,580.471092 634.011826,581.332908 632.883971,581.332908 L610.990331,581.332908 C609.862477,581.332908 609,580.471092 609,579.344102" id="Fill-87-Copy" fill="#5C6BC0"></path>
            <path d="M214.256715,748.011583 L193.026519,767.03782 C193.026519,767.03782 228.587098,806.548752 272.175346,817.818649 L280.136669,797.267661 L285.112497,798.726118 L287.301861,790.903484 C287.235516,790.969777 249.352884,782.749382 214.256715,748.011583" id="Fill-88" fill="#B0BEC5"></path>
            <path d="M582.865939,313.656441 L582.467873,300.066272 L593.945448,285.879461 L569.265345,265.858821 L534.500897,279.647871 L538.282526,292.508812 L529.392381,305.70122 L538.879626,312.330571 L536.955639,315.114898 L536.955639,319.755444 L543.457387,324.860044 L548.167837,323.269 L550.224512,320.948727 L560.83961,328.638774 L571.255675,313.789028 L582.865939,313.656441 Z" id="Fill-89" fill="#B0BEC5"></path>
            <path d="M592.419594,367.818305 L604.693302,364.70251 C605.754811,364.437336 606.816321,365.100271 607.081699,366.160967 L625.459088,438.089425 C625.724465,439.150121 625.061022,440.210818 623.999512,440.475992 L611.725804,443.591787 C610.664294,443.856961 609.602785,443.194025 609.337407,442.133329 L590.960018,370.138578 C590.694641,369.144175 591.358084,368.083479 592.419594,367.818305" id="Fill-90" fill="#B0BEC5"></path>
            <path d="M476.7813,277.857946 L478.970664,291.779583 C479.169697,292.840279 478.373565,293.900975 477.312055,294.033562 L392.523957,307.292264 C391.462447,307.491145 390.400937,306.695623 390.268249,305.634927 L388.078884,291.713289 C387.879851,290.652593 388.675984,289.591897 389.737494,289.45931 L474.525592,276.200608 C475.587102,276.001728 476.648611,276.730956 476.7813,277.857946" id="Fill-91" fill="#B0BEC5"></path>
            <path d="M452.499263,353.101079 L452.830984,348.261653 C452.897329,347.200957 451.769475,346.272848 450.309899,346.140261 L436.709304,340.969367 L384.828011,341.566009 C383.368435,341.433422 382.107892,342.228944 382.041547,343.28964 L381.709825,348.129066 C381.643481,349.189762 382.771335,350.117872 384.230911,350.250459 L449.712799,354.824711 C451.172375,354.957298 452.432918,354.161776 452.499263,353.101079" id="Fill-92" fill="#B0BEC5"></path>
            <path d="M545.779439,412.897892 L550.423545,411.373141 C551.41871,411.041673 552.612909,411.903489 553.07732,413.295653 L561.370365,425.228484 L573.312351,475.677845 C573.776761,477.070009 573.312351,478.462173 572.317185,478.79364 L567.67308,480.318391 C566.677914,480.649858 565.483716,479.788043 565.019305,478.395879 L544.784274,416.013687 C544.319863,414.621523 544.784274,413.229359 545.779439,412.897892" id="Fill-93" fill="#B0BEC5"></path>
            <path d="M1144.71746,97.9752805 L1076.31642,97.9752805 L1076.31642,97.9885392 L1071.76718,97.9885392 L1071.76718,124.704824 L1086.23025,124.704824 L1086.23025,112.427266 L1144.71746,112.427266 L1144.71746,97.9752805 Z" id="Fill-94" fill="#CFD8DC"></path>
            <path d="M1140.55667,369.740817 L1130.07426,369.740817 C1128.94641,369.740817 1128.08393,368.879001 1128.08393,367.752011 L1128.08393,281.570449 C1128.08393,280.443459 1128.94641,279.581644 1130.07426,279.581644 L1140.55667,279.581644 C1141.68452,279.581644 1142.547,280.443459 1142.547,281.570449 L1142.547,367.752011 C1142.547,368.812708 1141.68452,369.740817 1140.55667,369.740817" id="Fill-95" fill="#B0BEC5"></path>
            <path d="M984.382035,234.700871 L983.453214,226.347889 C983.320525,225.287193 984.116657,224.29279 985.244511,224.160203 L1011.05247,221.375876 C1012.11398,221.243289 1013.10914,222.038811 1013.24183,223.1658 L1014.17065,231.518783 C1014.30334,232.579479 1013.50721,233.573881 1012.37936,233.706468 L986.571399,236.490796 C985.443545,236.557089 984.514723,235.761567 984.382035,234.700871" id="Fill-96" fill="#5C6BC0"></path>
            <path d="M795.897694,285.548059 L789.263258,285.548059 C788.135404,285.548059 787.272927,284.686244 787.272927,283.559254 L787.272927,247.230411 C787.272927,246.103421 788.135404,245.241605 789.263258,245.241605 L795.897694,245.241605 C797.025549,245.241605 797.888025,246.103421 797.888025,247.230411 L797.888025,283.559254 C797.888025,284.61995 797.025549,285.548059 795.897694,285.548059" id="Fill-97" fill="#B0BEC5"></path>
            <path d="M956.716435,272.289357 L950.081998,272.289357 C948.954144,272.289357 948.091667,271.427542 948.091667,270.300552 L948.091667,242.589865 C948.091667,241.462875 948.954144,240.60106 950.081998,240.60106 L956.716435,240.60106 C957.844289,240.60106 958.706766,241.462875 958.706766,242.589865 L958.706766,270.300552 C958.706766,271.361248 957.777944,272.289357 956.716435,272.289357" id="Fill-98" fill="#B0BEC5"></path>
            <path d="M677.804725,241.065048 L670.175123,237.816666 C669.179958,237.418905 668.715547,236.225622 669.113613,235.231219 L702.882895,155.944182 C703.280961,154.949779 704.47516,154.485724 705.470325,154.883485 L713.099927,158.131867 C714.095093,158.529628 714.559503,159.722912 714.161437,160.717314 L680.392155,240.004352 C679.994089,240.998755 678.866235,241.462809 677.804725,241.065048" id="Fill-99" fill="#B0BEC5"></path>
            <path d="M674.686606,483.898174 L674.686606,473.4238 C674.686606,472.29681 675.549083,471.434994 676.676937,471.434994 L768.099472,471.434994 C769.227326,471.434994 770.089803,472.29681 770.089803,473.4238 L770.089803,483.898174 C770.089803,485.025164 769.227326,485.886979 768.099472,485.886979 L676.676937,485.886979 C675.549083,485.886979 674.686606,484.95887 674.686606,483.898174" id="Fill-100" fill="#B0BEC5"></path>
            <path d="M961.708981,312.399185 L954.991614,312.399185 L954.991614,305.635258 L950.347508,305.635258 L950.347508,312.399185 L943.596969,312.399185 L943.596969,317.03973 L950.347508,317.03973 L950.347508,323.732723 L954.991614,323.732723 L954.991614,317.03973 L961.708981,317.03973 L961.708981,312.399185 Z" id="Fill-101" fill="#FFCA28"></path>
            <path d="M792.568269,356.879611 L790.096278,352.95172 L784.35351,356.560076 L780.790817,350.899273 L776.859914,353.369369 L780.421943,359.030172 L774.764095,362.58483 L777.23675,366.513383 L782.893934,362.958063 L786.500413,368.689136 L790.43198,366.21904 L786.825501,360.487966 L792.568269,356.879611 Z" id="Fill-102" fill="#FFCA28"></path>
            <path d="M1022.86177,343.687401 L1030.49137,343.687401 C1031.95094,343.687401 1033.14514,342.494118 1033.14514,341.035661 C1033.14514,339.577204 1031.95094,338.38392 1030.49137,338.38392 L1022.86177,338.38392 C1021.40219,338.38392 1020.20799,339.577204 1020.20799,341.035661 C1020.20799,342.494118 1021.40219,343.687401 1022.86177,343.687401" id="Fill-103" fill="#FFCA28"></path>
            <path d="M1030.49137,350.515699 L1022.86177,350.515699 C1021.40219,350.515699 1020.20799,351.708982 1020.20799,353.167439 C1020.20799,354.625897 1021.40219,355.81918 1022.86177,355.81918 L1030.49137,355.81918 C1031.95094,355.81918 1033.14514,354.625897 1033.14514,353.167439 C1033.14514,351.708982 1031.95094,350.515699 1030.49137,350.515699" id="Fill-104" fill="#FFCA28"></path>
            <path d="M1030.49137,362.448531 L1022.86177,362.448531 C1021.40219,362.448531 1020.20799,363.641814 1020.20799,365.100271 C1020.20799,366.558728 1021.40219,367.752011 1022.86177,367.752011 L1030.49137,367.752011 C1031.95094,367.752011 1033.14514,366.558728 1033.14514,365.100271 C1033.14514,363.641814 1031.95094,362.448531 1030.49137,362.448531" id="Fill-105" fill="#FFCA28"></path>
            <path d="M1030.49137,374.64647 L1022.86177,374.64647 C1021.40219,374.64647 1020.20799,375.839753 1020.20799,377.298211 C1020.20799,378.756668 1021.40219,379.949951 1022.86177,379.949951 L1030.49137,379.949951 C1031.95094,379.949951 1033.14514,378.756668 1033.14514,377.298211 C1033.14514,375.839753 1031.95094,374.64647 1030.49137,374.64647" id="Fill-106" fill="#FFCA28"></path>
            <path d="M721.874102,217.267998 L715.156735,217.267998 L715.156735,210.504072 L710.51263,210.504072 L710.51263,217.267998 L703.762091,217.267998 L703.762091,221.908544 L710.51263,221.908544 L710.51263,228.601537 L715.156735,228.601537 L715.156735,221.908544 L721.874102,221.908544 L721.874102,217.267998 Z" id="Fill-107" fill="#FFCA28"></path>
            <path d="M1018.10169,188.098854 L1011.38432,188.098854 L1011.38432,181.334927 L1006.74022,181.334927 L1006.74022,188.098854 L999.989679,188.098854 L999.989679,192.7394 L1006.74022,192.7394 L1006.74022,199.432393 L1011.38432,199.432393 L1011.38432,192.7394 L1018.10169,192.7394 L1018.10169,188.098854 Z" id="Fill-108" fill="#FFCA28"></path>
            <rect fill="#2A8EA2" x="830" y="167" width="27" height="13" rx="2"></rect>
            <rect fill="#2A8EA2" x="936" y="175" width="27" height="13" rx="2"></rect>
            <g transform="translate(995.000000, 383.000000)">
                <path d="M15,27.99 C7.8365625,27.99 2.01,22.1634375 2.01,15 C2.01,7.8365625 7.8365625,2.0090625 15,2.0090625 C22.1634375,2.0090625 27.99,7.8365625 27.99,15 C27.99,22.1634375 22.1634375,27.99 15,27.99 M15,0 C6.7153125,0 0,6.7153125 0,15 C0,23.2846875 6.7153125,30 15,30 C23.2846875,30 30,23.2846875 30,15 C30,6.7153125 23.2846875,0 15,0" id="Fill-1" fill="#FFFFFF"></path>
                <path d="M22.9040625,17.1084375 L17.1084375,17.1084375 L17.1084375,22.9040625 L12.8915625,22.9040625 L12.8915625,17.1084375 L7.0959375,17.1084375 L7.0959375,12.8915625 L12.8915625,12.8915625 L12.8915625,7.0959375 L17.1084375,7.0959375 L17.1084375,12.8915625 L22.9040625,12.8915625 L22.9040625,17.1084375 Z M15,2.9465625 C8.3540625,2.9465625 2.9475,8.3540625 2.9475,15 C2.9475,21.6459375 8.355,27.0525 15,27.0525 C21.645,27.0525 27.0525,21.6459375 27.0525,15 C27.0525,8.3540625 21.6459375,2.9465625 15,2.9465625 L15,2.9465625 Z" id="Fill-3" fill="#E53935"></path>
                <path d="M22.9040625,17.1084375 L17.1084375,17.1084375 L17.1084375,22.9040625 L12.8915625,22.9040625 L12.8915625,17.1084375 L7.0959375,17.1084375 L7.0959375,12.8915625 L12.8915625,12.8915625 L12.8915625,7.0959375 L17.1084375,7.0959375 L17.1084375,12.8915625 L22.9040625,12.8915625 L22.9040625,17.1084375 Z" id="Path-Copy" fill="#FFFFFF"></path>
            </g>
        </g>
    </g>
</svg>
