<?xml version="1.0" encoding="UTF-8" standalone="no"?>
<svg width="68px" height="68px" viewBox="0 0 68 68" version="1.1" xmlns="http://www.w3.org/2000/svg" xmlns:xlink="http://www.w3.org/1999/xlink">
    <g stroke="none" stroke-width="1" fill="none" fill-rule="evenodd">
        <g transform="translate(-372.000000, -1449.000000)">
            <g transform="translate(372.000000, 1449.000000)">
                <circle fill-opacity="0.7" fill="#7CB342" cx="34" cy="34" r="34"></circle>
                <path d="M32.3,28.9 L35.7,28.9 L35.7,25.5 L32.3,25.5 L32.3,28.9 Z M34,47.6 C26.503,47.6 20.4,41.497 20.4,34 C20.4,26.503 26.503,20.4 34,20.4 C41.497,20.4 47.6,26.503 47.6,34 C47.6,41.497 41.497,47.6 34,47.6 L34,47.6 Z M34,17 C24.616,17 17,24.616 17,34 C17,43.384 24.616,51 34,51 C43.384,51 51,43.384 51,34 C51,24.616 43.384,17 34,17 L34,17 Z M32.3,42.5 L35.7,42.5 L35.7,32.3 L32.3,32.3 L32.3,42.5 Z" fill="#FFFFFF"></path>
            </g>
        </g>
    </g>
</svg>
