<?xml version="1.0" encoding="UTF-8" standalone="no"?>
<svg width="68px" height="68px" viewBox="0 0 68 68" version="1.1" xmlns="http://www.w3.org/2000/svg" xmlns:xlink="http://www.w3.org/1999/xlink" xmlns:sketch="http://www.bohemiancoding.com/sketch/ns">
    <!-- Generator: Sketch 3.5.2 (25235) - http://www.bohemiancoding.com/sketch -->
    <title>Group 4</title>
    <desc>Created with Sketch.</desc>
    <defs></defs>
    <g id="Page-1" stroke="none" stroke-width="1" fill="none" fill-rule="evenodd" sketch:type="MSPage">
        <g id="io16-desktop-attending-phase2" sketch:type="MSArtboardGroup" transform="translate(-372.000000, -1759.000000)">
            <g id="Group-4" sketch:type="MSLayerGroup" transform="translate(372.000000, 1759.000000)">
                <circle id="Oval-16-Copy-2" fill="#B0BEC5" sketch:type="MSShapeGroup" cx="34" cy="34" r="34"></circle>
                <path d="M23.1111111,30.375 L25.4444444,23.34375 L42.5555556,23.34375 L44.8888889,30.375 L23.1111111,30.375 Z M42.5555556,38.1875 C41.2644444,38.1875 40.2222222,37.140625 40.2222222,35.84375 C40.2222222,34.546875 41.2644444,33.5 42.5555556,33.5 C43.8466667,33.5 44.8888889,34.546875 44.8888889,35.84375 C44.8888889,37.140625 43.8466667,38.1875 42.5555556,38.1875 L42.5555556,38.1875 Z M25.4444444,38.1875 C24.1533333,38.1875 23.1111111,37.140625 23.1111111,35.84375 C23.1111111,34.546875 24.1533333,33.5 25.4444444,33.5 C26.7355556,33.5 27.7777778,34.546875 27.7777778,35.84375 C27.7777778,37.140625 26.7355556,38.1875 25.4444444,38.1875 L25.4444444,38.1875 Z M44.7644444,22.578125 C44.4533333,21.65625 43.5822222,21 42.5555556,21 L25.4444444,21 C24.4177778,21 23.5622222,21.65625 23.2355556,22.578125 L20,31.9375 L20,44.4375 C20,45.296875 20.7,46 21.5555556,46 L23.1111111,46 C23.9666667,46 24.6666667,45.296875 24.6666667,44.4375 L24.6666667,42.875 L43.3333333,42.875 L43.3333333,44.4375 C43.3333333,45.296875 44.0333333,46 44.8888889,46 L46.4444444,46 C47.3,46 48,45.296875 48,44.4375 L48,31.9375 L44.7644444,22.578125 Z" id="Page-1" fill="#FBFCFC" sketch:type="MSShapeGroup"></path>
            </g>
        </g>
    </g>
</svg>