<?xml version="1.0" encoding="UTF-8" standalone="no"?>
<svg width="68px" height="68px" viewBox="0 0 68 68" version="1.1" xmlns="http://www.w3.org/2000/svg" xmlns:xlink="http://www.w3.org/1999/xlink">
    <defs>
        <path id="path-1" d="M0,0.130434783 L28.7386957,0.130434783 L28.7386957,28.6956522 L0,28.6956522"></path>
    </defs>
    <g stroke="none" stroke-width="1" fill="none" fill-rule="evenodd">
        <g transform="translate(-372.000000, -963.000000)">
            <g transform="translate(372.000000, 963.000000)">
                <circle fill-opacity="0.7" fill="#26C6DA" cx="34" cy="34" r="34"></circle>
                <g transform="translate(19.000000, 19.000000)">
                    <mask id="mask-2" fill="white">
                        <use xlink:href="#path-1"></use>
                    </mask>
                    <path d="M28.3622609,23.4782609 L16.4926957,11.6086957 C17.6666087,8.60869565 17.0144348,5.08695652 14.5361739,2.60869565 C11.9274783,-1.27620137e-13 8.01443478,-0.52173913 4.884,0.913043478 L10.4926957,6.52173913 L6.57965217,10.4347826 L0.840521739,4.82608696 C-0.724695652,7.95652174 -0.0725217391,11.8695652 2.53617391,14.4782609 C5.01443478,16.9565217 8.53617391,17.6086957 11.5361739,16.4347826 L23.4057391,28.3043478 C23.9274783,28.826087 24.710087,28.826087 25.2318261,28.3043478 L28.2318261,25.3043478 C28.884,24.7826087 28.884,23.8695652 28.3622609,23.4782609" id="Fill-1" fill="#FFFFFF" mask="url(#mask-2)"></path>
                </g>
            </g>
        </g>
    </g>
</svg>
