<?xml version="1.0" encoding="UTF-8" standalone="no"?>
<svg width="68px" height="68px" viewBox="0 0 68 68" version="1.1" xmlns="http://www.w3.org/2000/svg" xmlns:xlink="http://www.w3.org/1999/xlink">
    <g stroke="none" stroke-width="1" fill="none" fill-rule="evenodd">
        <g transform="translate(-372.000000, -1362.000000)">
            <g transform="translate(372.000000, 1362.000000)">
                <circle id="Oval-16-Copy" fill="#4DD0E1" cx="34" cy="34" r="34"></circle>
                <path d="M43,33.2105263 L35.5,33.2105263 L35.5,25.3157895 L43,25.3157895 L43,33.2105263 Z M40.75,42.6842105 C39.505,42.6842105 38.5,41.6263158 38.5,40.3157895 C38.5,39.0052632 39.505,37.9473684 40.75,37.9473684 C41.995,37.9473684 43,39.0052632 43,40.3157895 C43,41.6263158 41.995,42.6842105 40.75,42.6842105 L40.75,42.6842105 Z M32.5,33.2105263 L25,33.2105263 L25,25.3157895 L32.5,25.3157895 L32.5,33.2105263 Z M27.25,42.6842105 C26.005,42.6842105 25,41.6263158 25,40.3157895 C25,39.0052632 26.005,37.9473684 27.25,37.9473684 C28.495,37.9473684 29.5,39.0052632 29.5,40.3157895 C29.5,41.6263158 28.495,42.6842105 27.25,42.6842105 L27.25,42.6842105 Z M34,19 C27.37,19 22,19.7894737 22,25.3157895 L22,40.3157895 C22,43.3631579 24.355,45.8421053 27.25,45.8421053 L25,48.2105263 L25,49 L43,49 L43,48.2105263 L40.75,45.8421053 C43.645,45.8421053 46,43.3631579 46,40.3157895 L46,25.3157895 C46,19.7894737 40.63,19 34,19 L34,19 Z" fill="#FBFCFC"></path>
            </g>
        </g>
    </g>
</svg>
